<?xml version="1.0" encoding="utf-8" standalone="no"?>
<!DOCTYPE svg PUBLIC "-//W3C//DTD SVG 1.1//EN"
  "http://www.w3.org/Graphics/SVG/1.1/DTD/svg11.dtd">
<svg xmlns:xlink="http://www.w3.org/1999/xlink" width="504pt" height="288pt" viewBox="0 0 504 288" xmlns="http://www.w3.org/2000/svg" version="1.1">
 <metadata>
  <rdf:RDF xmlns:dc="http://purl.org/dc/elements/1.1/" xmlns:cc="http://creativecommons.org/ns#" xmlns:rdf="http://www.w3.org/1999/02/22-rdf-syntax-ns#">
   <cc:Work>
    <dc:type rdf:resource="http://purl.org/dc/dcmitype/StillImage"/>
    <dc:date>2024-09-06T13:21:59.855649</dc:date>
    <dc:format>image/svg+xml</dc:format>
    <dc:creator>
     <cc:Agent>
      <dc:title>Matplotlib v3.7.3, https://matplotlib.org/</dc:title>
     </cc:Agent>
    </dc:creator>
   </cc:Work>
  </rdf:RDF>
 </metadata>
 <defs>
  <style type="text/css">*{stroke-linejoin: round; stroke-linecap: butt}</style>
 </defs>
 <g id="figure_1">
  <g id="patch_1">
   <path d="M 0 288 
L 504 288 
L 504 0 
L 0 0 
z
" style="fill: #ffffff"/>
  </g>
  <g id="axes_1">
   <g id="patch_2">
    <path d="M 63 256.32 
L 453.6 256.32 
L 453.6 34.56 
L 63 34.56 
z
" style="fill: #ffffff"/>
   </g>
   <g id="matplotlib.axis_1">
    <g id="xtick_1">
     <g id="line2d_1">
      <defs>
       <path id="m6450141338" d="M 0 0 
L 0 3.5 
" style="stroke: #000000; stroke-width: 0.8"/>
      </defs>
      <g>
       <use xlink:href="#m6450141338" x="78.970169" y="256.32" style="stroke: #000000; stroke-width: 0.8"/>
      </g>
     </g>
     <g id="text_1">
      <!-- $\mathdefault{0}$ -->
      <g transform="translate(76.479501 270.238498) scale(0.1 -0.1)">
       <defs>
        <path id="CMR17-30" d="M 2688 2038 
C 2688 2430 2682 3099 2413 3613 
C 2176 4063 1798 4224 1466 4224 
C 1158 4224 768 4082 525 3620 
C 269 3137 243 2539 243 2038 
C 243 1671 250 1112 448 623 
C 723 -39 1216 -128 1466 -128 
C 1760 -128 2208 -7 2470 604 
C 2662 1048 2688 1568 2688 2038 
z
M 1466 -26 
C 1056 -26 813 328 723 816 
C 653 1196 653 1749 653 2109 
C 653 2604 653 3015 736 3407 
C 858 3954 1216 4121 1466 4121 
C 1728 4121 2067 3947 2189 3420 
C 2272 3054 2278 2623 2278 2109 
C 2278 1691 2278 1176 2202 797 
C 2067 96 1690 -26 1466 -26 
z
" transform="scale(0.015625)"/>
       </defs>
       <use xlink:href="#CMR17-30" transform="scale(0.996264)"/>
      </g>
     </g>
    </g>
    <g id="xtick_2">
     <g id="line2d_2">
      <g>
       <use xlink:href="#m6450141338" x="150.345226" y="256.32" style="stroke: #000000; stroke-width: 0.8"/>
      </g>
     </g>
     <g id="text_2">
      <!-- $\mathdefault{200}$ -->
      <g transform="translate(142.873223 270.238498) scale(0.1 -0.1)">
       <defs>
        <path id="CMR17-32" d="M 2669 990 
L 2554 990 
C 2490 537 2438 460 2413 422 
C 2381 371 1920 371 1830 371 
L 602 371 
C 832 620 1280 1073 1824 1596 
C 2214 1966 2669 2400 2669 3033 
C 2669 3788 2067 4224 1395 4224 
C 691 4224 262 3603 262 3027 
C 262 2777 448 2745 525 2745 
C 589 2745 781 2783 781 3007 
C 781 3206 614 3264 525 3264 
C 486 3264 448 3257 422 3244 
C 544 3788 915 4057 1306 4057 
C 1862 4057 2227 3616 2227 3033 
C 2227 2477 1901 1998 1536 1583 
L 262 147 
L 262 0 
L 2515 0 
L 2669 990 
z
" transform="scale(0.015625)"/>
       </defs>
       <use xlink:href="#CMR17-32" transform="scale(0.996264)"/>
       <use xlink:href="#CMR17-30" transform="translate(45.690477 0) scale(0.996264)"/>
       <use xlink:href="#CMR17-30" transform="translate(91.380954 0) scale(0.996264)"/>
      </g>
     </g>
    </g>
    <g id="xtick_3">
     <g id="line2d_3">
      <g>
       <use xlink:href="#m6450141338" x="221.720283" y="256.32" style="stroke: #000000; stroke-width: 0.8"/>
      </g>
     </g>
     <g id="text_3">
      <!-- $\mathdefault{400}$ -->
      <g transform="translate(214.24828 270.238498) scale(0.1 -0.1)">
       <defs>
        <path id="CMR17-34" d="M 2150 4147 
C 2150 4281 2144 4288 2029 4288 
L 128 1254 
L 128 1088 
L 1779 1088 
L 1779 460 
C 1779 230 1766 166 1318 166 
L 1197 166 
L 1197 0 
C 1402 12 1747 12 1965 12 
C 2182 12 2528 12 2733 0 
L 2733 166 
L 2611 166 
C 2163 166 2150 230 2150 460 
L 2150 1088 
L 2803 1088 
L 2803 1254 
L 2150 1254 
L 2150 4147 
z
M 1798 3723 
L 1798 1254 
L 256 1254 
L 1798 3723 
z
" transform="scale(0.015625)"/>
       </defs>
       <use xlink:href="#CMR17-34" transform="scale(0.996264)"/>
       <use xlink:href="#CMR17-30" transform="translate(45.690477 0) scale(0.996264)"/>
       <use xlink:href="#CMR17-30" transform="translate(91.380954 0) scale(0.996264)"/>
      </g>
     </g>
    </g>
    <g id="xtick_4">
     <g id="line2d_4">
      <g>
       <use xlink:href="#m6450141338" x="293.09534" y="256.32" style="stroke: #000000; stroke-width: 0.8"/>
      </g>
     </g>
     <g id="text_4">
      <!-- $\mathdefault{600}$ -->
      <g transform="translate(285.623337 270.238498) scale(0.1 -0.1)">
       <defs>
        <path id="CMR17-36" d="M 678 2198 
C 678 3712 1395 4076 1811 4076 
C 1946 4076 2272 4049 2400 3782 
C 2298 3782 2106 3782 2106 3558 
C 2106 3385 2246 3328 2336 3328 
C 2394 3328 2566 3353 2566 3571 
C 2566 3987 2246 4224 1805 4224 
C 1043 4224 243 3411 243 2011 
C 243 257 966 -128 1478 -128 
C 2099 -128 2688 431 2688 1295 
C 2688 2101 2170 2688 1517 2688 
C 1126 2688 838 2430 678 1979 
L 678 2198 
z
M 1478 25 
C 691 25 691 1212 691 1450 
C 691 1914 909 2585 1504 2585 
C 1613 2585 1926 2585 2138 2140 
C 2253 1889 2253 1624 2253 1302 
C 2253 954 2253 696 2118 438 
C 1978 173 1773 25 1478 25 
z
" transform="scale(0.015625)"/>
       </defs>
       <use xlink:href="#CMR17-36" transform="scale(0.996264)"/>
       <use xlink:href="#CMR17-30" transform="translate(45.690477 0) scale(0.996264)"/>
       <use xlink:href="#CMR17-30" transform="translate(91.380954 0) scale(0.996264)"/>
      </g>
     </g>
    </g>
    <g id="xtick_5">
     <g id="line2d_5">
      <g>
       <use xlink:href="#m6450141338" x="364.470397" y="256.32" style="stroke: #000000; stroke-width: 0.8"/>
      </g>
     </g>
     <g id="text_5">
      <!-- $\mathdefault{800}$ -->
      <g transform="translate(356.998395 270.238498) scale(0.1 -0.1)">
       <defs>
        <path id="CMR17-38" d="M 1741 2289 
C 2144 2494 2554 2803 2554 3298 
C 2554 3884 1990 4224 1472 4224 
C 890 4224 378 3800 378 3215 
C 378 3054 416 2777 666 2533 
C 730 2469 998 2276 1171 2154 
C 883 2006 211 1652 211 945 
C 211 282 838 -128 1459 -128 
C 2144 -128 2720 366 2720 1022 
C 2720 1607 2330 1877 2074 2051 
L 1741 2289 
z
M 902 2855 
C 851 2887 595 3086 595 3388 
C 595 3781 998 4076 1459 4076 
C 1965 4076 2336 3716 2336 3298 
C 2336 2700 1670 2359 1638 2359 
C 1632 2359 1626 2359 1574 2398 
L 902 2855 
z
M 2080 1536 
C 2176 1466 2483 1253 2483 861 
C 2483 385 2010 25 1472 25 
C 890 25 448 443 448 951 
C 448 1459 838 1884 1280 2083 
L 2080 1536 
z
" transform="scale(0.015625)"/>
       </defs>
       <use xlink:href="#CMR17-38" transform="scale(0.996264)"/>
       <use xlink:href="#CMR17-30" transform="translate(45.690477 0) scale(0.996264)"/>
       <use xlink:href="#CMR17-30" transform="translate(91.380954 0) scale(0.996264)"/>
      </g>
     </g>
    </g>
    <g id="xtick_6">
     <g id="line2d_6">
      <g>
       <use xlink:href="#m6450141338" x="435.845455" y="256.32" style="stroke: #000000; stroke-width: 0.8"/>
      </g>
     </g>
     <g id="text_6">
      <!-- $\mathdefault{1000}$ -->
      <g transform="translate(425.882784 270.238498) scale(0.1 -0.1)">
       <defs>
        <path id="CMR17-31" d="M 1702 4083 
C 1702 4217 1696 4224 1606 4224 
C 1357 3927 979 3833 621 3820 
C 602 3820 570 3820 563 3808 
C 557 3795 557 3782 557 3648 
C 755 3648 1088 3686 1344 3839 
L 1344 467 
C 1344 243 1331 166 781 166 
L 589 166 
L 589 0 
C 896 6 1216 12 1523 12 
C 1830 12 2150 6 2458 0 
L 2458 166 
L 2266 166 
C 1715 166 1702 236 1702 467 
L 1702 4083 
z
" transform="scale(0.015625)"/>
       </defs>
       <use xlink:href="#CMR17-31" transform="scale(0.996264)"/>
       <use xlink:href="#CMR17-30" transform="translate(45.690477 0) scale(0.996264)"/>
       <use xlink:href="#CMR17-30" transform="translate(91.380954 0) scale(0.996264)"/>
       <use xlink:href="#CMR17-30" transform="translate(137.071431 0) scale(0.996264)"/>
      </g>
     </g>
    </g>
    <g id="text_7">
     <!-- Number of solver steps $(n)$ -->
     <g transform="translate(199.851252 283.647657) scale(0.1 -0.1)">
      <defs>
       <path id="CMR17-4e" d="M 1312 4275 
C 1267 4345 1261 4352 1139 4352 
L 326 4352 
L 326 4185 
L 448 4185 
C 704 4185 819 4153 838 4147 
L 838 624 
C 838 465 838 166 326 166 
L 326 0 
C 474 12 742 12 902 12 
C 1062 12 1331 12 1478 0 
L 1478 166 
C 966 166 966 465 966 624 
L 966 4057 
C 1011 4019 1011 4007 1056 3943 
L 3430 76 
C 3475 0 3494 0 3526 0 
C 3590 0 3590 19 3590 140 
L 3590 3726 
C 3590 3885 3590 4185 4102 4185 
L 4102 4352 
C 3955 4339 3686 4339 3526 4339 
C 3366 4339 3098 4339 2950 4352 
L 2950 4185 
C 3462 4185 3462 3885 3462 3726 
L 3462 777 
L 1312 4275 
z
" transform="scale(0.015625)"/>
       <path id="CMR17-75" d="M 1882 2745 
L 1882 2579 
C 2259 2579 2317 2540 2317 2229 
L 2317 1053 
C 2317 510 2029 38 1555 38 
C 1030 38 986 355 986 691 
L 986 2816 
L 211 2745 
L 211 2579 
C 467 2579 640 2579 646 2320 
L 646 1079 
C 646 646 646 368 813 187 
C 896 103 1056 -64 1517 -64 
C 2061 -64 2272 400 2323 536 
L 2330 536 
L 2330 -64 
L 3091 -13 
L 3091 154 
C 2714 154 2656 193 2656 503 
L 2656 2816 
L 1882 2745 
z
" transform="scale(0.015625)"/>
       <path id="CMR17-6d" d="M 4326 1954 
C 4326 2276 4269 2816 3507 2816 
C 3072 2816 2771 2520 2656 2173 
L 2650 2173 
C 2573 2700 2195 2816 1837 2816 
C 1331 2816 1069 2424 973 2166 
L 966 2166 
L 966 2816 
L 211 2745 
L 211 2578 
C 589 2578 646 2540 646 2231 
L 646 443 
C 646 198 621 166 211 166 
L 211 0 
C 365 12 646 12 813 12 
C 979 12 1267 12 1421 0 
L 1421 166 
C 1011 166 986 192 986 443 
L 986 1678 
C 986 2269 1344 2713 1792 2713 
C 2266 2713 2317 2289 2317 1980 
L 2317 443 
C 2317 198 2291 166 1882 166 
L 1882 0 
C 2035 12 2317 12 2483 12 
C 2650 12 2938 12 3091 0 
L 3091 166 
C 2682 166 2656 192 2656 443 
L 2656 1678 
C 2656 2269 3014 2713 3462 2713 
C 3936 2713 3987 2289 3987 1980 
L 3987 443 
C 3987 198 3962 166 3552 166 
L 3552 0 
C 3706 12 3987 12 4154 12 
C 4320 12 4608 12 4762 0 
L 4762 166 
C 4352 166 4326 192 4326 443 
L 4326 1954 
z
" transform="scale(0.015625)"/>
       <path id="CMR17-62" d="M 960 4416 
L 198 4345 
L 198 4179 
C 576 4179 634 4141 634 3843 
L 634 -13 
L 749 -13 
L 934 445 
C 1120 141 1395 -64 1766 -64 
C 2406 -64 3053 503 3053 1382 
C 3053 2209 2477 2816 1830 2816 
C 1434 2816 1152 2603 960 2351 
L 960 4416 
z
M 973 2022 
C 973 2138 973 2157 1062 2293 
C 1312 2681 1670 2713 1792 2713 
C 1984 2713 2643 2610 2643 1388 
C 2643 109 1888 38 1734 38 
C 1536 38 1248 115 1043 490 
C 973 613 973 626 973 742 
L 973 2022 
z
" transform="scale(0.015625)"/>
       <path id="CMR17-65" d="M 2438 1503 
C 2464 1529 2464 1542 2464 1606 
C 2464 2251 2118 2816 1389 2816 
C 710 2816 173 2175 173 1394 
C 173 554 781 -64 1459 -64 
C 2176 -64 2458 619 2458 755 
C 2458 800 2419 800 2406 800 
C 2362 800 2355 787 2330 709 
C 2189 270 1837 51 1504 51 
C 1229 51 954 206 781 490 
C 582 819 582 1200 582 1503 
L 2438 1503 
z
M 589 1600 
C 634 2511 1126 2713 1382 2713 
C 1818 2713 2112 2308 2118 1600 
L 589 1600 
z
" transform="scale(0.015625)"/>
       <path id="CMR17-72" d="M 960 1517 
C 960 2134 1222 2713 1702 2713 
C 1747 2713 1792 2707 1837 2687 
C 1837 2687 1696 2642 1696 2475 
C 1696 2321 1818 2257 1914 2257 
C 1990 2257 2131 2302 2131 2482 
C 2131 2687 1926 2816 1709 2816 
C 1222 2816 1011 2340 947 2115 
L 941 2115 
L 941 2816 
L 198 2745 
L 198 2578 
C 576 2578 634 2540 634 2231 
L 634 443 
C 634 198 608 166 198 166 
L 198 0 
C 352 12 646 12 813 12 
C 998 12 1325 12 1498 0 
L 1498 166 
C 1037 166 960 166 960 455 
L 960 1517 
z
" transform="scale(0.015625)"/>
       <path id="CMR17-6f" d="M 2758 1356 
C 2758 2176 2163 2816 1466 2816 
C 768 2816 173 2176 173 1356 
C 173 550 768 -64 1466 -64 
C 2163 -64 2758 550 2758 1356 
z
M 1466 51 
C 1165 51 909 230 762 480 
C 602 768 582 1126 582 1408 
C 582 1676 595 2009 762 2297 
C 890 2508 1139 2713 1466 2713 
C 1754 2713 1997 2553 2150 2329 
C 2349 2028 2349 1606 2349 1408 
C 2349 1158 2336 774 2163 467 
C 1984 172 1709 51 1466 51 
z
" transform="scale(0.015625)"/>
       <path id="CMR17-66" d="M 979 2585 
L 1709 2585 
L 1709 2752 
L 966 2752 
L 966 3539 
C 966 4076 1235 4377 1510 4377 
C 1594 4377 1690 4363 1754 4339 
C 1702 4326 1568 4281 1568 4121 
C 1568 3955 1696 3904 1786 3904 
C 1875 3904 2003 3955 2003 4121 
C 2003 4353 1773 4480 1517 4480 
C 1152 4480 653 4211 653 3526 
L 653 2752 
L 141 2752 
L 141 2585 
L 653 2585 
L 653 441 
C 653 198 627 166 218 166 
L 218 0 
C 371 12 666 12 832 12 
C 1018 12 1344 12 1517 0 
L 1517 166 
C 1056 166 979 166 979 454 
L 979 2585 
z
" transform="scale(0.015625)"/>
       <path id="CMR17-73" d="M 1978 2688 
C 1978 2803 1971 2809 1933 2809 
C 1907 2809 1901 2803 1824 2707 
C 1805 2681 1747 2617 1728 2592 
C 1523 2809 1235 2816 1126 2816 
C 416 2816 160 2444 160 2073 
C 160 1497 813 1363 998 1324 
C 1402 1241 1542 1216 1677 1100 
C 1760 1024 1901 883 1901 652 
C 1901 384 1747 38 1158 38 
C 602 38 403 460 288 1024 
C 269 1113 269 1120 218 1120 
C 166 1120 160 1113 160 985 
L 160 64 
C 160 -52 166 -58 205 -58 
C 237 -58 243 -52 275 0 
C 314 57 410 211 448 275 
C 576 102 800 -64 1158 -64 
C 1792 -64 2131 281 2131 780 
C 2131 1107 1958 1280 1875 1356 
C 1683 1555 1459 1600 1190 1651 
C 838 1728 390 1817 390 2208 
C 390 2374 480 2726 1126 2726 
C 1811 2726 1850 2086 1862 1881 
C 1869 1849 1901 1843 1920 1843 
C 1978 1843 1978 1862 1978 1971 
L 1978 2688 
z
" transform="scale(0.015625)"/>
       <path id="CMR17-6c" d="M 979 4416 
L 218 4345 
L 218 4179 
C 595 4179 653 4141 653 3835 
L 653 439 
C 653 198 627 166 218 166 
L 218 0 
C 371 12 653 12 813 12 
C 979 12 1261 12 1414 0 
L 1414 166 
C 1005 166 979 191 979 439 
L 979 4416 
z
" transform="scale(0.015625)"/>
       <path id="CMR17-76" d="M 2502 2173 
C 2560 2315 2662 2572 3034 2585 
L 3034 2752 
C 2912 2745 2752 2739 2630 2739 
C 2496 2739 2285 2739 2157 2752 
L 2157 2585 
C 2317 2572 2406 2495 2406 2328 
C 2406 2270 2406 2257 2368 2167 
L 1664 379 
L 902 2308 
C 864 2392 864 2405 864 2431 
C 864 2585 1075 2585 1171 2585 
L 1171 2752 
C 1018 2739 736 2739 576 2739 
C 403 2739 205 2739 64 2752 
L 64 2585 
C 307 2585 442 2585 518 2386 
L 1446 44 
C 1485 -52 1491 -64 1549 -64 
C 1606 -64 1613 -52 1651 44 
L 2502 2173 
z
" transform="scale(0.015625)"/>
       <path id="CMR17-74" d="M 966 2585 
L 1862 2585 
L 1862 2752 
L 966 2752 
L 966 3968 
L 851 3968 
C 838 3292 614 2700 70 2687 
L 70 2585 
L 627 2585 
L 627 778 
C 627 655 627 -64 1370 -64 
C 1747 -64 1965 308 1965 784 
L 1965 1151 
L 1850 1151 
L 1850 790 
C 1850 347 1677 51 1408 51 
C 1222 51 966 179 966 765 
L 966 2585 
z
" transform="scale(0.015625)"/>
       <path id="CMR17-70" d="M 1408 -1114 
C 998 -1114 973 -1088 973 -834 
L 973 380 
C 1158 109 1427 -64 1766 -64 
C 2406 -64 3053 503 3053 1382 
C 3053 2196 2496 2816 1837 2816 
C 1453 2816 1139 2603 960 2345 
L 960 2816 
L 198 2745 
L 198 2577 
C 576 2577 634 2539 634 2228 
L 634 -834 
C 634 -1081 608 -1114 198 -1114 
L 198 -1280 
C 352 -1268 634 -1268 800 -1268 
C 966 -1268 1254 -1268 1408 -1280 
L 1408 -1114 
z
M 973 2015 
C 973 2106 973 2241 1222 2481 
C 1254 2506 1472 2700 1792 2700 
C 2259 2700 2643 2112 2643 1376 
C 2643 639 2234 38 1728 38 
C 1498 38 1248 148 1056 451 
C 973 594 973 632 973 736 
L 973 2015 
z
" transform="scale(0.015625)"/>
       <path id="CMR17-28" d="M 1958 -1562 
C 1958 -1556 1958 -1543 1939 -1524 
C 1645 -1223 858 -403 858 1596 
C 858 3595 1632 4408 1946 4729 
C 1946 4735 1958 4748 1958 4767 
C 1958 4787 1939 4800 1914 4800 
C 1843 4800 1299 4325 986 3620 
C 666 2909 576 2218 576 1603 
C 576 1141 621 360 1005 -467 
C 1312 -1133 1837 -1600 1914 -1600 
C 1946 -1600 1958 -1588 1958 -1562 
z
" transform="scale(0.015625)"/>
       <path id="CMMI12-6e" d="M 1318 1870 
C 1331 1909 1491 2228 1728 2432 
C 1894 2585 2112 2687 2362 2687 
C 2618 2687 2707 2496 2707 2241 
C 2707 1877 2445 1149 2317 804 
C 2259 651 2227 568 2227 453 
C 2227 166 2426 -64 2733 -64 
C 3328 -64 3552 874 3552 913 
C 3552 945 3526 970 3488 970 
C 3430 970 3424 951 3392 842 
C 3245 319 3002 64 2752 64 
C 2688 64 2586 70 2586 274 
C 2586 434 2656 625 2694 715 
C 2822 1066 3091 1781 3091 2145 
C 3091 2528 2867 2816 2381 2816 
C 1811 2816 1510 2413 1395 2253 
C 1376 2617 1114 2816 832 2816 
C 627 2816 486 2694 378 2477 
C 262 2247 173 1864 173 1838 
C 173 1813 198 1781 243 1781 
C 294 1781 301 1787 339 1934 
C 442 2324 557 2687 813 2687 
C 960 2687 1011 2585 1011 2394 
C 1011 2253 947 2004 902 1807 
L 723 1117 
C 698 996 627 708 595 593 
C 550 427 480 127 480 95 
C 480 6 550 -64 646 -64 
C 723 -64 813 -26 864 70 
C 877 102 934 325 966 453 
L 1107 1028 
L 1318 1870 
z
" transform="scale(0.015625)"/>
       <path id="CMR17-29" d="M 1683 1596 
C 1683 2057 1638 2839 1254 3665 
C 947 4332 422 4800 346 4800 
C 326 4800 301 4793 301 4761 
C 301 4748 307 4742 314 4729 
C 621 4408 1402 3595 1402 1603 
C 1402 -396 627 -1210 314 -1530 
C 307 -1543 301 -1549 301 -1562 
C 301 -1594 326 -1600 346 -1600 
C 416 -1600 960 -1127 1274 -422 
C 1594 289 1683 981 1683 1596 
z
" transform="scale(0.015625)"/>
      </defs>
      <use xlink:href="#CMR17-4e" transform="scale(0.996264)"/>
      <use xlink:href="#CMR17-75" transform="translate(69.07243 0) scale(0.996264)"/>
      <use xlink:href="#CMR17-6d" transform="translate(119.9678 0) scale(0.996264)"/>
      <use xlink:href="#CMR17-62" transform="translate(194.284936 0) scale(0.996264)"/>
      <use xlink:href="#CMR17-65" transform="translate(247.782744 0) scale(0.996264)"/>
      <use xlink:href="#CMR17-72" transform="translate(288.268404 0) scale(0.996264)"/>
      <use xlink:href="#CMR17-6f" transform="translate(353.625139 0) scale(0.996264)"/>
      <use xlink:href="#CMR17-66" transform="translate(399.315616 0) scale(0.996264)"/>
      <use xlink:href="#CMR17-73" transform="translate(456.865095 0) scale(0.996264)"/>
      <use xlink:href="#CMR17-6f" transform="translate(492.666432 0) scale(0.996264)"/>
      <use xlink:href="#CMR17-6c" transform="translate(538.356909 0) scale(0.996264)"/>
      <use xlink:href="#CMR17-76" transform="translate(563.227968 0) scale(0.996264)"/>
      <use xlink:href="#CMR17-65" transform="translate(608.91843 0) scale(0.996264)"/>
      <use xlink:href="#CMR17-72" transform="translate(649.40409 0) scale(0.996264)"/>
      <use xlink:href="#CMR17-73" transform="translate(714.760824 0) scale(0.996264)"/>
      <use xlink:href="#CMR17-74" transform="translate(750.562162 0) scale(0.996264)"/>
      <use xlink:href="#CMR17-65" transform="translate(785.84293 0) scale(0.996264)"/>
      <use xlink:href="#CMR17-70" transform="translate(826.32859 0) scale(0.996264)"/>
      <use xlink:href="#CMR17-73" transform="translate(877.22396 0) scale(0.996264)"/>
      <use xlink:href="#CMR17-28" transform="translate(943.101264 0) scale(0.996264)"/>
      <use xlink:href="#CMMI12-6e" transform="translate(978.382032 0) scale(0.996264)"/>
      <use xlink:href="#CMR17-29" transform="translate(1036.612079 0) scale(0.996264)"/>
     </g>
    </g>
   </g>
   <g id="matplotlib.axis_2">
    <g id="ytick_1">
     <g id="line2d_7">
      <defs>
       <path id="m55dfedcb9d" d="M 0 0 
L -3.5 0 
" style="stroke: #000000; stroke-width: 0.8"/>
      </defs>
      <g>
       <use xlink:href="#m55dfedcb9d" x="63" y="243.202599" style="stroke: #000000; stroke-width: 0.8"/>
      </g>
     </g>
     <g id="text_8">
      <!-- $\mathdefault{0}$ -->
      <g transform="translate(51.018665 246.661848) scale(0.1 -0.1)">
       <use xlink:href="#CMR17-30" transform="scale(0.996264)"/>
      </g>
     </g>
    </g>
    <g id="ytick_2">
     <g id="line2d_8">
      <g>
       <use xlink:href="#m55dfedcb9d" x="63" y="199.810899" style="stroke: #000000; stroke-width: 0.8"/>
      </g>
     </g>
     <g id="text_9">
      <!-- $\mathdefault{2}$ -->
      <g transform="translate(51.018665 203.270148) scale(0.1 -0.1)">
       <use xlink:href="#CMR17-32" transform="scale(0.996264)"/>
      </g>
     </g>
    </g>
    <g id="ytick_3">
     <g id="line2d_9">
      <g>
       <use xlink:href="#m55dfedcb9d" x="63" y="156.419198" style="stroke: #000000; stroke-width: 0.8"/>
      </g>
     </g>
     <g id="text_10">
      <!-- $\mathdefault{4}$ -->
      <g transform="translate(51.018665 159.878448) scale(0.1 -0.1)">
       <use xlink:href="#CMR17-34" transform="scale(0.996264)"/>
      </g>
     </g>
    </g>
    <g id="ytick_4">
     <g id="line2d_10">
      <g>
       <use xlink:href="#m55dfedcb9d" x="63" y="113.027498" style="stroke: #000000; stroke-width: 0.8"/>
      </g>
     </g>
     <g id="text_11">
      <!-- $\mathdefault{6}$ -->
      <g transform="translate(51.018665 116.486747) scale(0.1 -0.1)">
       <use xlink:href="#CMR17-36" transform="scale(0.996264)"/>
      </g>
     </g>
    </g>
    <g id="ytick_5">
     <g id="line2d_11">
      <g>
       <use xlink:href="#m55dfedcb9d" x="63" y="69.635798" style="stroke: #000000; stroke-width: 0.8"/>
      </g>
     </g>
     <g id="text_12">
      <!-- $\mathdefault{8}$ -->
      <g transform="translate(51.018665 73.095047) scale(0.1 -0.1)">
       <use xlink:href="#CMR17-38" transform="scale(0.996264)"/>
      </g>
     </g>
    </g>
    <g id="text_13">
     <!-- Size of the computational graph (bytes) -->
     <g transform="translate(44.528005 232.239684) rotate(-90) scale(0.1 -0.1)">
      <defs>
       <path id="CMR17-53" d="M 2803 4351 
C 2803 4467 2797 4473 2758 4473 
C 2720 4473 2707 4447 2682 4390 
L 2490 3965 
C 2246 4320 1875 4480 1472 4480 
C 819 4480 294 3958 294 3301 
C 294 3101 339 2817 557 2546 
C 794 2250 1018 2198 1530 2063 
C 1722 2011 2042 1927 2106 1901 
C 2470 1747 2662 1360 2662 999 
C 2662 534 2336 38 1779 38 
C 1094 38 454 425 410 1328 
C 403 1431 397 1437 352 1437 
C 301 1437 294 1431 294 1302 
L 294 0 
C 294 -116 301 -122 339 -122 
C 384 -122 397 -90 486 109 
C 493 128 493 141 614 386 
C 934 -39 1472 -128 1779 -128 
C 2477 -128 2970 457 2970 1141 
C 2970 1476 2848 1734 2778 1850 
C 2509 2263 2221 2340 1914 2417 
C 1869 2437 1856 2437 1498 2527 
C 1152 2617 1005 2662 845 2836 
C 666 3036 602 3243 602 3449 
C 602 3868 934 4326 1478 4326 
C 2157 4326 2579 3842 2675 3036 
C 2694 2920 2701 2914 2746 2914 
C 2803 2914 2803 2933 2803 3043 
L 2803 4351 
z
" transform="scale(0.015625)"/>
       <path id="CMR17-69" d="M 992 3961 
C 992 4102 877 4224 730 4224 
C 589 4224 467 4108 467 3961 
C 467 3820 582 3699 730 3699 
C 870 3699 992 3814 992 3961 
z
M 243 2745 
L 243 2579 
C 602 2579 653 2540 653 2231 
L 653 443 
C 653 198 627 166 218 166 
L 218 0 
C 371 12 646 12 806 12 
C 960 12 1222 12 1370 0 
L 1370 166 
C 992 166 979 205 979 436 
L 979 2816 
L 243 2745 
z
" transform="scale(0.015625)"/>
       <path id="CMR17-7a" d="M 2310 2604 
C 2362 2668 2362 2681 2362 2694 
C 2362 2752 2336 2752 2221 2752 
L 275 2752 
L 211 1760 
L 326 1760 
C 371 2380 442 2649 1178 2649 
L 1958 2649 
L 128 96 
C 128 6 134 0 269 0 
L 2291 0 
L 2381 1152 
L 2266 1152 
C 2214 441 2131 115 1350 115 
L 531 115 
L 2310 2604 
z
" transform="scale(0.015625)"/>
       <path id="CMR17-68" d="M 2656 1954 
C 2656 2282 2592 2816 1837 2816 
C 1312 2816 1056 2392 979 2179 
L 973 2179 
L 973 4416 
L 211 4345 
L 211 4179 
C 589 4179 646 4141 646 3843 
L 646 443 
C 646 198 621 166 211 166 
L 211 0 
C 365 12 646 12 813 12 
C 979 12 1267 12 1421 0 
L 1421 166 
C 1011 166 986 192 986 443 
L 986 1678 
C 986 2269 1344 2713 1792 2713 
C 2266 2713 2317 2289 2317 1980 
L 2317 443 
C 2317 198 2291 166 1882 166 
L 1882 0 
C 2035 12 2317 12 2483 12 
C 2650 12 2938 12 3091 0 
L 3091 166 
C 2682 166 2656 192 2656 443 
L 2656 1954 
z
" transform="scale(0.015625)"/>
       <path id="CMR17-63" d="M 2234 2240 
C 2112 2240 1933 2240 1933 2015 
C 1933 1836 2080 1785 2163 1785 
C 2208 1785 2394 1804 2394 2028 
C 2394 2476 1958 2816 1466 2816 
C 787 2816 211 2201 211 1379 
C 211 521 813 -64 1466 -64 
C 2259 -64 2458 676 2458 747 
C 2458 773 2451 792 2406 792 
C 2362 792 2355 786 2330 702 
C 2163 180 1798 51 1523 51 
C 1114 51 621 431 621 1385 
C 621 2358 1094 2700 1472 2700 
C 1722 2700 2093 2582 2234 2240 
z
" transform="scale(0.015625)"/>
       <path id="CMR17-61" d="M 2304 1656 
C 2304 2048 2304 2275 2035 2534 
C 1798 2751 1523 2816 1306 2816 
C 800 2816 435 2408 435 1977 
C 435 1740 627 1728 666 1728 
C 749 1728 896 1779 896 1958 
C 896 2118 774 2188 666 2188 
C 640 2188 608 2182 589 2176 
C 723 2594 1069 2713 1293 2713 
C 1613 2713 1965 2421 1965 1875 
L 1965 1632 
C 1587 1619 1133 1568 774 1373 
C 371 1147 256 822 256 576 
C 256 77 832 -64 1171 -64 
C 1523 -64 1850 135 1990 505 
C 2003 219 2182 -39 2464 -39 
C 2598 -39 2938 51 2938 563 
L 2938 926 
L 2822 926 
L 2822 557 
C 2822 161 2650 109 2566 109 
C 2304 109 2304 446 2304 732 
L 2304 1656 
z
M 1965 887 
C 1965 323 1568 38 1216 38 
C 896 38 646 278 646 576 
C 646 771 730 1114 1101 1322 
C 1408 1497 1760 1523 1965 1536 
L 1965 887 
z
" transform="scale(0.015625)"/>
       <path id="CMR17-6e" d="M 2656 1954 
C 2656 2282 2592 2816 1837 2816 
C 1331 2816 1069 2424 973 2166 
L 966 2166 
L 966 2816 
L 211 2745 
L 211 2578 
C 589 2578 646 2540 646 2231 
L 646 443 
C 646 198 621 166 211 166 
L 211 0 
C 365 12 646 12 813 12 
C 979 12 1267 12 1421 0 
L 1421 166 
C 1011 166 986 192 986 443 
L 986 1678 
C 986 2269 1344 2713 1792 2713 
C 2266 2713 2317 2289 2317 1980 
L 2317 443 
C 2317 198 2291 166 1882 166 
L 1882 0 
C 2035 12 2317 12 2483 12 
C 2650 12 2938 12 3091 0 
L 3091 166 
C 2682 166 2656 192 2656 443 
L 2656 1954 
z
" transform="scale(0.015625)"/>
       <path id="CMR17-67" d="M 710 1165 
C 832 1068 1043 960 1299 960 
C 1805 960 2240 1359 2240 1895 
C 2240 2063 2189 2321 1997 2521 
C 2176 2713 2438 2777 2586 2777 
C 2611 2777 2650 2777 2682 2758 
C 2656 2751 2598 2726 2598 2623 
C 2598 2540 2656 2483 2739 2483 
C 2835 2483 2886 2547 2886 2630 
C 2886 2751 2790 2880 2586 2880 
C 2330 2880 2106 2758 1926 2591 
C 1734 2764 1504 2828 1299 2828 
C 794 2828 358 2431 358 1895 
C 358 1527 570 1294 634 1230 
C 442 1004 442 742 442 710 
C 442 544 506 300 723 166 
C 390 82 128 -184 128 -517 
C 128 -996 736 -1344 1466 -1344 
C 2170 -1344 2803 -1009 2803 -510 
C 2803 384 1856 384 1363 384 
C 1216 384 954 384 922 390 
C 723 422 589 601 589 825 
C 589 883 589 1024 710 1165 
z
M 1299 1068 
C 736 1068 736 1766 736 1895 
C 736 2024 736 2719 1299 2719 
C 1862 2719 1862 2024 1862 1895 
C 1862 1766 1862 1068 1299 1068 
z
M 1466 -1236 
C 826 -1236 384 -883 384 -517 
C 384 -311 493 -118 634 -11 
C 794 102 858 102 1293 102 
C 1818 102 2547 102 2547 -517 
C 2547 -883 2106 -1236 1466 -1236 
z
" transform="scale(0.015625)"/>
       <path id="CMR17-79" d="M 2496 2183 
C 2656 2579 2944 2585 3034 2585 
L 3034 2752 
C 2912 2745 2752 2739 2630 2739 
C 2496 2739 2285 2739 2157 2752 
L 2157 2585 
C 2400 2566 2406 2384 2406 2332 
C 2406 2268 2394 2235 2362 2158 
L 1664 409 
L 902 2300 
C 870 2378 870 2423 870 2430 
C 870 2572 1018 2585 1171 2585 
L 1171 2752 
C 1018 2739 742 2739 582 2739 
C 410 2739 205 2739 64 2752 
L 64 2585 
C 410 2585 448 2553 531 2345 
L 1485 -31 
C 1197 -795 1030 -1242 627 -1242 
C 557 -1242 397 -1223 282 -1106 
C 429 -1093 493 -1002 493 -892 
C 493 -782 416 -685 288 -685 
C 147 -685 77 -782 77 -899 
C 77 -1158 339 -1344 627 -1344 
C 998 -1344 1229 -983 1357 -659 
L 2496 2183 
z
" transform="scale(0.015625)"/>
      </defs>
      <use xlink:href="#CMR17-53" transform="scale(0.996264)"/>
      <use xlink:href="#CMR17-69" transform="translate(50.89537 0) scale(0.996264)"/>
      <use xlink:href="#CMR17-7a" transform="translate(75.766428 0) scale(0.996264)"/>
      <use xlink:href="#CMR17-65" transform="translate(116.252089 0) scale(0.996264)"/>
      <use xlink:href="#CMR17-6f" transform="translate(186.813716 0) scale(0.996264)"/>
      <use xlink:href="#CMR17-66" transform="translate(232.504193 0) scale(0.996264)"/>
      <use xlink:href="#CMR17-74" transform="translate(290.053671 0) scale(0.996264)"/>
      <use xlink:href="#CMR17-68" transform="translate(325.334439 0) scale(0.996264)"/>
      <use xlink:href="#CMR17-65" transform="translate(376.229809 0) scale(0.996264)"/>
      <use xlink:href="#CMR17-63" transform="translate(446.791436 0) scale(0.996264)"/>
      <use xlink:href="#CMR17-6f" transform="translate(487.277096 0) scale(0.996264)"/>
      <use xlink:href="#CMR17-6d" transform="translate(532.967573 0) scale(0.996264)"/>
      <use xlink:href="#CMR17-70" transform="translate(609.887163 0) scale(0.996264)"/>
      <use xlink:href="#CMR17-75" transform="translate(660.782533 0) scale(0.996264)"/>
      <use xlink:href="#CMR17-74" transform="translate(711.677903 0) scale(0.996264)"/>
      <use xlink:href="#CMR17-61" transform="translate(746.958671 0) scale(0.996264)"/>
      <use xlink:href="#CMR17-74" transform="translate(792.649148 0) scale(0.996264)"/>
      <use xlink:href="#CMR17-69" transform="translate(827.929916 0) scale(0.996264)"/>
      <use xlink:href="#CMR17-6f" transform="translate(852.800974 0) scale(0.996264)"/>
      <use xlink:href="#CMR17-6e" transform="translate(898.491451 0) scale(0.996264)"/>
      <use xlink:href="#CMR17-61" transform="translate(949.386821 0) scale(0.996264)"/>
      <use xlink:href="#CMR17-6c" transform="translate(995.077298 0) scale(0.996264)"/>
      <use xlink:href="#CMR17-67" transform="translate(1050.024323 0) scale(0.996264)"/>
      <use xlink:href="#CMR17-72" transform="translate(1095.7148 0) scale(0.996264)"/>
      <use xlink:href="#CMR17-61" transform="translate(1130.995568 0) scale(0.996264)"/>
      <use xlink:href="#CMR17-70" transform="translate(1176.686045 0) scale(0.996264)"/>
      <use xlink:href="#CMR17-68" transform="translate(1227.581415 0) scale(0.996264)"/>
      <use xlink:href="#CMR17-28" transform="translate(1308.552751 0) scale(0.996264)"/>
      <use xlink:href="#CMR17-62" transform="translate(1343.833519 0) scale(0.996264)"/>
      <use xlink:href="#CMR17-79" transform="translate(1392.126434 0) scale(0.996264)"/>
      <use xlink:href="#CMR17-74" transform="translate(1440.41935 0) scale(0.996264)"/>
      <use xlink:href="#CMR17-65" transform="translate(1475.700118 0) scale(0.996264)"/>
      <use xlink:href="#CMR17-73" transform="translate(1516.185779 0) scale(0.996264)"/>
      <use xlink:href="#CMR17-29" transform="translate(1551.987116 0) scale(0.996264)"/>
     </g>
    </g>
    <g id="text_14">
     <!-- $\times\mathdefault{10^{7}}\mathdefault{}$ -->
     <g transform="translate(63 31.56) scale(0.1 -0.1)">
      <defs>
       <path id="CMSY10-2" d="M 2490 1775 
L 1210 3046 
C 1133 3123 1120 3136 1069 3136 
C 1005 3136 941 3078 941 3008 
C 941 2963 954 2950 1024 2880 
L 2304 1596 
L 1024 313 
C 954 243 941 230 941 185 
C 941 115 1005 57 1069 57 
C 1120 57 1133 70 1210 147 
L 2483 1418 
L 3808 95 
C 3821 89 3866 57 3904 57 
C 3981 57 4032 115 4032 185 
C 4032 198 4032 223 4013 255 
C 4006 268 2989 1271 2669 1596 
L 3840 2765 
C 3872 2803 3968 2886 4000 2925 
C 4006 2937 4032 2963 4032 3008 
C 4032 3078 3981 3136 3904 3136 
C 3853 3136 3827 3110 3757 3040 
L 2490 1775 
z
" transform="scale(0.015625)"/>
       <path id="CMR17-37" d="M 2886 3955 
L 2886 4096 
L 1382 4096 
C 634 4096 621 4166 595 4288 
L 480 4288 
L 294 3104 
L 410 3104 
C 429 3226 474 3552 550 3673 
C 589 3724 1062 3724 1171 3724 
L 2579 3724 
L 1869 2670 
C 1395 1961 1069 1003 1069 166 
C 1069 89 1069 -128 1299 -128 
C 1530 -128 1530 89 1530 172 
L 1530 466 
C 1530 1514 1709 2204 2003 2644 
L 2886 3955 
z
" transform="scale(0.015625)"/>
      </defs>
      <use xlink:href="#CMSY10-2" transform="scale(0.996264)"/>
      <use xlink:href="#CMR17-31" transform="translate(77.487468 0) scale(0.996264)"/>
      <use xlink:href="#CMR17-30" transform="translate(123.177945 0) scale(0.996264)"/>
      <use xlink:href="#CMR17-37" transform="translate(168.868422 36.153639) scale(0.697382)"/>
     </g>
    </g>
   </g>
   <g id="LineCollection_1">
    <path d="M 80.754545 244.820869 
L 80.754545 239.397157 
" clip-path="url(#p2ff8ae11f4)" style="fill: none; stroke: #1f77b4; stroke-width: 4"/>
    <path d="M 96.813933 226.325358 
L 96.813933 222.869146 
" clip-path="url(#p2ff8ae11f4)" style="fill: none; stroke: #1f77b4; stroke-width: 4"/>
    <path d="M 114.657698 214.641938 
L 114.657698 208.879507 
" clip-path="url(#p2ff8ae11f4)" style="fill: none; stroke: #1f77b4; stroke-width: 4"/>
    <path d="M 186.032755 177.812314 
L 186.032755 171.747964 
" clip-path="url(#p2ff8ae11f4)" style="fill: none; stroke: #1f77b4; stroke-width: 4"/>
    <path d="M 257.407812 141.575474 
L 257.407812 135.513885 
" clip-path="url(#p2ff8ae11f4)" style="fill: none; stroke: #1f77b4; stroke-width: 4"/>
    <path d="M 364.470397 87.256008 
L 364.470397 81.194419 
" clip-path="url(#p2ff8ae11f4)" style="fill: none; stroke: #1f77b4; stroke-width: 4"/>
    <path d="M 435.845455 50.607135 
L 435.845455 44.64 
" clip-path="url(#p2ff8ae11f4)" style="fill: none; stroke: #1f77b4; stroke-width: 4"/>
   </g>
   <g id="line2d_12">
    <defs>
     <path id="mf60b6ddf0c" d="M 5 0 
L -5 -0 
" style="stroke: #1f77b4"/>
    </defs>
    <g clip-path="url(#p2ff8ae11f4)">
     <use xlink:href="#mf60b6ddf0c" x="80.754545" y="244.820869" style="fill: #1f77b4; stroke: #1f77b4"/>
     <use xlink:href="#mf60b6ddf0c" x="96.813933" y="226.325358" style="fill: #1f77b4; stroke: #1f77b4"/>
     <use xlink:href="#mf60b6ddf0c" x="114.657698" y="214.641938" style="fill: #1f77b4; stroke: #1f77b4"/>
     <use xlink:href="#mf60b6ddf0c" x="186.032755" y="177.812314" style="fill: #1f77b4; stroke: #1f77b4"/>
     <use xlink:href="#mf60b6ddf0c" x="257.407812" y="141.575474" style="fill: #1f77b4; stroke: #1f77b4"/>
     <use xlink:href="#mf60b6ddf0c" x="364.470397" y="87.256008" style="fill: #1f77b4; stroke: #1f77b4"/>
     <use xlink:href="#mf60b6ddf0c" x="435.845455" y="50.607135" style="fill: #1f77b4; stroke: #1f77b4"/>
    </g>
   </g>
   <g id="line2d_13">
    <g clip-path="url(#p2ff8ae11f4)">
     <use xlink:href="#mf60b6ddf0c" x="80.754545" y="239.397157" style="fill: #1f77b4; stroke: #1f77b4"/>
     <use xlink:href="#mf60b6ddf0c" x="96.813933" y="222.869146" style="fill: #1f77b4; stroke: #1f77b4"/>
     <use xlink:href="#mf60b6ddf0c" x="114.657698" y="208.879507" style="fill: #1f77b4; stroke: #1f77b4"/>
     <use xlink:href="#mf60b6ddf0c" x="186.032755" y="171.747964" style="fill: #1f77b4; stroke: #1f77b4"/>
     <use xlink:href="#mf60b6ddf0c" x="257.407812" y="135.513885" style="fill: #1f77b4; stroke: #1f77b4"/>
     <use xlink:href="#mf60b6ddf0c" x="364.470397" y="81.194419" style="fill: #1f77b4; stroke: #1f77b4"/>
     <use xlink:href="#mf60b6ddf0c" x="435.845455" y="44.64" style="fill: #1f77b4; stroke: #1f77b4"/>
    </g>
   </g>
   <g id="LineCollection_2">
    <path d="M 80.754545 246.235557 
L 80.754545 240.844444 
" clip-path="url(#p2ff8ae11f4)" style="fill: none; stroke: #ff7f0e; stroke-width: 4"/>
    <path d="M 96.813933 242.488337 
L 96.813933 242.488337 
" clip-path="url(#p2ff8ae11f4)" style="fill: none; stroke: #ff7f0e; stroke-width: 4"/>
    <path d="M 114.657698 241.766299 
L 114.657698 241.766299 
" clip-path="url(#p2ff8ae11f4)" style="fill: none; stroke: #ff7f0e; stroke-width: 4"/>
    <path d="M 186.032755 238.878147 
L 186.032755 238.878147 
" clip-path="url(#p2ff8ae11f4)" style="fill: none; stroke: #ff7f0e; stroke-width: 4"/>
    <path d="M 257.407812 235.989996 
L 257.407812 235.989996 
" clip-path="url(#p2ff8ae11f4)" style="fill: none; stroke: #ff7f0e; stroke-width: 4"/>
    <path d="M 364.470397 231.657768 
L 364.470397 231.657768 
" clip-path="url(#p2ff8ae11f4)" style="fill: none; stroke: #ff7f0e; stroke-width: 4"/>
    <path d="M 435.845455 228.769617 
L 435.845455 228.769617 
" clip-path="url(#p2ff8ae11f4)" style="fill: none; stroke: #ff7f0e; stroke-width: 4"/>
   </g>
   <g id="line2d_14">
    <defs>
     <path id="mc99c6ba2e8" d="M 5 0 
L -5 -0 
" style="stroke: #ff7f0e"/>
    </defs>
    <g clip-path="url(#p2ff8ae11f4)">
     <use xlink:href="#mc99c6ba2e8" x="80.754545" y="246.235557" style="fill: #ff7f0e; stroke: #ff7f0e"/>
     <use xlink:href="#mc99c6ba2e8" x="96.813933" y="242.488337" style="fill: #ff7f0e; stroke: #ff7f0e"/>
     <use xlink:href="#mc99c6ba2e8" x="114.657698" y="241.766299" style="fill: #ff7f0e; stroke: #ff7f0e"/>
     <use xlink:href="#mc99c6ba2e8" x="186.032755" y="238.878147" style="fill: #ff7f0e; stroke: #ff7f0e"/>
     <use xlink:href="#mc99c6ba2e8" x="257.407812" y="235.989996" style="fill: #ff7f0e; stroke: #ff7f0e"/>
     <use xlink:href="#mc99c6ba2e8" x="364.470397" y="231.657768" style="fill: #ff7f0e; stroke: #ff7f0e"/>
     <use xlink:href="#mc99c6ba2e8" x="435.845455" y="228.769617" style="fill: #ff7f0e; stroke: #ff7f0e"/>
    </g>
   </g>
   <g id="line2d_15">
    <g clip-path="url(#p2ff8ae11f4)">
     <use xlink:href="#mc99c6ba2e8" x="80.754545" y="240.844444" style="fill: #ff7f0e; stroke: #ff7f0e"/>
     <use xlink:href="#mc99c6ba2e8" x="96.813933" y="242.488337" style="fill: #ff7f0e; stroke: #ff7f0e"/>
     <use xlink:href="#mc99c6ba2e8" x="114.657698" y="241.766299" style="fill: #ff7f0e; stroke: #ff7f0e"/>
     <use xlink:href="#mc99c6ba2e8" x="186.032755" y="238.878147" style="fill: #ff7f0e; stroke: #ff7f0e"/>
     <use xlink:href="#mc99c6ba2e8" x="257.407812" y="235.989996" style="fill: #ff7f0e; stroke: #ff7f0e"/>
     <use xlink:href="#mc99c6ba2e8" x="364.470397" y="231.657768" style="fill: #ff7f0e; stroke: #ff7f0e"/>
     <use xlink:href="#mc99c6ba2e8" x="435.845455" y="228.769617" style="fill: #ff7f0e; stroke: #ff7f0e"/>
    </g>
   </g>
   <g id="LineCollection_3">
    <path d="M 80.754545 246.24 
L 80.754545 240.848888 
" clip-path="url(#p2ff8ae11f4)" style="fill: none; stroke: #2ca02c; stroke-width: 4"/>
    <path d="M 96.813933 242.542767 
L 96.813933 242.542767 
" clip-path="url(#p2ff8ae11f4)" style="fill: none; stroke: #2ca02c; stroke-width: 4"/>
    <path d="M 114.657698 241.876271 
L 114.657698 241.876271 
" clip-path="url(#p2ff8ae11f4)" style="fill: none; stroke: #2ca02c; stroke-width: 4"/>
    <path d="M 186.032755 239.210285 
L 186.032755 239.210285 
" clip-path="url(#p2ff8ae11f4)" style="fill: none; stroke: #2ca02c; stroke-width: 4"/>
    <path d="M 257.407812 236.544299 
L 257.407812 236.544299 
" clip-path="url(#p2ff8ae11f4)" style="fill: none; stroke: #2ca02c; stroke-width: 4"/>
    <path d="M 364.470397 232.54532 
L 364.470397 232.54532 
" clip-path="url(#p2ff8ae11f4)" style="fill: none; stroke: #2ca02c; stroke-width: 4"/>
    <path d="M 435.845455 229.879333 
L 435.845455 229.879333 
" clip-path="url(#p2ff8ae11f4)" style="fill: none; stroke: #2ca02c; stroke-width: 4"/>
   </g>
   <g id="line2d_16">
    <defs>
     <path id="m1c49c29c4f" d="M 5 0 
L -5 -0 
" style="stroke: #2ca02c"/>
    </defs>
    <g clip-path="url(#p2ff8ae11f4)">
     <use xlink:href="#m1c49c29c4f" x="80.754545" y="246.24" style="fill: #2ca02c; stroke: #2ca02c"/>
     <use xlink:href="#m1c49c29c4f" x="96.813933" y="242.542767" style="fill: #2ca02c; stroke: #2ca02c"/>
     <use xlink:href="#m1c49c29c4f" x="114.657698" y="241.876271" style="fill: #2ca02c; stroke: #2ca02c"/>
     <use xlink:href="#m1c49c29c4f" x="186.032755" y="239.210285" style="fill: #2ca02c; stroke: #2ca02c"/>
     <use xlink:href="#m1c49c29c4f" x="257.407812" y="236.544299" style="fill: #2ca02c; stroke: #2ca02c"/>
     <use xlink:href="#m1c49c29c4f" x="364.470397" y="232.54532" style="fill: #2ca02c; stroke: #2ca02c"/>
     <use xlink:href="#m1c49c29c4f" x="435.845455" y="229.879333" style="fill: #2ca02c; stroke: #2ca02c"/>
    </g>
   </g>
   <g id="line2d_17">
    <g clip-path="url(#p2ff8ae11f4)">
     <use xlink:href="#m1c49c29c4f" x="80.754545" y="240.848888" style="fill: #2ca02c; stroke: #2ca02c"/>
     <use xlink:href="#m1c49c29c4f" x="96.813933" y="242.542767" style="fill: #2ca02c; stroke: #2ca02c"/>
     <use xlink:href="#m1c49c29c4f" x="114.657698" y="241.876271" style="fill: #2ca02c; stroke: #2ca02c"/>
     <use xlink:href="#m1c49c29c4f" x="186.032755" y="239.210285" style="fill: #2ca02c; stroke: #2ca02c"/>
     <use xlink:href="#m1c49c29c4f" x="257.407812" y="236.544299" style="fill: #2ca02c; stroke: #2ca02c"/>
     <use xlink:href="#m1c49c29c4f" x="364.470397" y="232.54532" style="fill: #2ca02c; stroke: #2ca02c"/>
     <use xlink:href="#m1c49c29c4f" x="435.845455" y="229.879333" style="fill: #2ca02c; stroke: #2ca02c"/>
    </g>
   </g>
   <g id="line2d_18">
    <path d="M 80.754545 242.109013 
L 96.813933 224.597252 
L 114.657698 211.760722 
L 186.032755 174.780139 
L 257.407812 138.54468 
L 364.470397 84.225214 
L 435.845455 47.623567 
" clip-path="url(#p2ff8ae11f4)" style="fill: none; stroke-dasharray: 4,6.6; stroke-dashoffset: 0; stroke: #1f77b4; stroke-width: 4"/>
    <defs>
     <path id="ma88d47f27f" d="M 0 3 
C 0.795609 3 1.55874 2.683901 2.12132 2.12132 
C 2.683901 1.55874 3 0.795609 3 0 
C 3 -0.795609 2.683901 -1.55874 2.12132 -2.12132 
C 1.55874 -2.683901 0.795609 -3 0 -3 
C -0.795609 -3 -1.55874 -2.683901 -2.12132 -2.12132 
C -2.683901 -1.55874 -3 -0.795609 -3 0 
C -3 0.795609 -2.683901 1.55874 -2.12132 2.12132 
C -1.55874 2.683901 -0.795609 3 0 3 
z
" style="stroke: #1f77b4"/>
    </defs>
    <g clip-path="url(#p2ff8ae11f4)">
     <use xlink:href="#ma88d47f27f" x="80.754545" y="242.109013" style="fill: #1f77b4; stroke: #1f77b4"/>
     <use xlink:href="#ma88d47f27f" x="96.813933" y="224.597252" style="fill: #1f77b4; stroke: #1f77b4"/>
     <use xlink:href="#ma88d47f27f" x="114.657698" y="211.760722" style="fill: #1f77b4; stroke: #1f77b4"/>
     <use xlink:href="#ma88d47f27f" x="186.032755" y="174.780139" style="fill: #1f77b4; stroke: #1f77b4"/>
     <use xlink:href="#ma88d47f27f" x="257.407812" y="138.54468" style="fill: #1f77b4; stroke: #1f77b4"/>
     <use xlink:href="#ma88d47f27f" x="364.470397" y="84.225214" style="fill: #1f77b4; stroke: #1f77b4"/>
     <use xlink:href="#ma88d47f27f" x="435.845455" y="47.623567" style="fill: #1f77b4; stroke: #1f77b4"/>
    </g>
   </g>
   <g id="line2d_19">
    <path d="M 80.754545 243.540001 
L 96.813933 242.488337 
L 114.657698 241.766299 
L 186.032755 238.878147 
L 257.407812 235.989996 
L 364.470397 231.657768 
L 435.845455 228.769617 
" clip-path="url(#p2ff8ae11f4)" style="fill: none; stroke-dasharray: 4,6.6; stroke-dashoffset: 0; stroke: #ff7f0e; stroke-width: 4"/>
    <defs>
     <path id="m3686276e8b" d="M -3 3 
L 3 3 
L 3 -3 
L -3 -3 
z
" style="stroke: #ff7f0e; stroke-linejoin: miter"/>
    </defs>
    <g clip-path="url(#p2ff8ae11f4)">
     <use xlink:href="#m3686276e8b" x="80.754545" y="243.540001" style="fill: #ff7f0e; stroke: #ff7f0e; stroke-linejoin: miter"/>
     <use xlink:href="#m3686276e8b" x="96.813933" y="242.488337" style="fill: #ff7f0e; stroke: #ff7f0e; stroke-linejoin: miter"/>
     <use xlink:href="#m3686276e8b" x="114.657698" y="241.766299" style="fill: #ff7f0e; stroke: #ff7f0e; stroke-linejoin: miter"/>
     <use xlink:href="#m3686276e8b" x="186.032755" y="238.878147" style="fill: #ff7f0e; stroke: #ff7f0e; stroke-linejoin: miter"/>
     <use xlink:href="#m3686276e8b" x="257.407812" y="235.989996" style="fill: #ff7f0e; stroke: #ff7f0e; stroke-linejoin: miter"/>
     <use xlink:href="#m3686276e8b" x="364.470397" y="231.657768" style="fill: #ff7f0e; stroke: #ff7f0e; stroke-linejoin: miter"/>
     <use xlink:href="#m3686276e8b" x="435.845455" y="228.769617" style="fill: #ff7f0e; stroke: #ff7f0e; stroke-linejoin: miter"/>
    </g>
   </g>
   <g id="line2d_20">
    <path d="M 80.754545 243.544444 
L 96.813933 242.542767 
L 114.657698 241.876271 
L 186.032755 239.210285 
L 257.407812 236.544299 
L 364.470397 232.54532 
L 435.845455 229.879333 
" clip-path="url(#p2ff8ae11f4)" style="fill: none; stroke-dasharray: 4,6.6; stroke-dashoffset: 0; stroke: #2ca02c; stroke-width: 4"/>
    <defs>
     <path id="m864563a50b" d="M 0 -3 
L -3 3 
L 3 3 
z
" style="stroke: #2ca02c; stroke-linejoin: miter"/>
    </defs>
    <g clip-path="url(#p2ff8ae11f4)">
     <use xlink:href="#m864563a50b" x="80.754545" y="243.544444" style="fill: #2ca02c; stroke: #2ca02c; stroke-linejoin: miter"/>
     <use xlink:href="#m864563a50b" x="96.813933" y="242.542767" style="fill: #2ca02c; stroke: #2ca02c; stroke-linejoin: miter"/>
     <use xlink:href="#m864563a50b" x="114.657698" y="241.876271" style="fill: #2ca02c; stroke: #2ca02c; stroke-linejoin: miter"/>
     <use xlink:href="#m864563a50b" x="186.032755" y="239.210285" style="fill: #2ca02c; stroke: #2ca02c; stroke-linejoin: miter"/>
     <use xlink:href="#m864563a50b" x="257.407812" y="236.544299" style="fill: #2ca02c; stroke: #2ca02c; stroke-linejoin: miter"/>
     <use xlink:href="#m864563a50b" x="364.470397" y="232.54532" style="fill: #2ca02c; stroke: #2ca02c; stroke-linejoin: miter"/>
     <use xlink:href="#m864563a50b" x="435.845455" y="229.879333" style="fill: #2ca02c; stroke: #2ca02c; stroke-linejoin: miter"/>
    </g>
   </g>
   <g id="patch_3">
    <path d="M 63 256.32 
L 63 34.56 
" style="fill: none; stroke: #000000; stroke-width: 0.8; stroke-linejoin: miter; stroke-linecap: square"/>
   </g>
   <g id="patch_4">
    <path d="M 453.6 256.32 
L 453.6 34.56 
" style="fill: none; stroke: #000000; stroke-width: 0.8; stroke-linejoin: miter; stroke-linecap: square"/>
   </g>
   <g id="patch_5">
    <path d="M 63 256.32 
L 453.6 256.32 
" style="fill: none; stroke: #000000; stroke-width: 0.8; stroke-linejoin: miter; stroke-linecap: square"/>
   </g>
   <g id="patch_6">
    <path d="M 63 34.56 
L 453.6 34.56 
" style="fill: none; stroke: #000000; stroke-width: 0.8; stroke-linejoin: miter; stroke-linecap: square"/>
   </g>
   <g id="legend_1">
    <g id="patch_7">
     <path d="M 70 85.396997 
L 220.099014 85.396997 
Q 222.099014 85.396997 222.099014 83.396997 
L 222.099014 41.56 
Q 222.099014 39.56 220.099014 39.56 
L 70 39.56 
Q 68 39.56 68 41.56 
L 68 83.396997 
Q 68 85.396997 70 85.396997 
z
" style="fill: #ffffff; opacity: 0.8; stroke: #cccccc; stroke-linejoin: miter"/>
    </g>
    <g id="LineCollection_4">
     <path d="M 82 52.06 
L 82 42.06 
" style="fill: none; stroke: #1f77b4; stroke-width: 4"/>
    </g>
    <g id="line2d_21">
     <g>
      <use xlink:href="#mf60b6ddf0c" x="82" y="52.06" style="fill: #1f77b4; stroke: #1f77b4"/>
     </g>
    </g>
    <g id="line2d_22">
     <g>
      <use xlink:href="#mf60b6ddf0c" x="82" y="42.06" style="fill: #1f77b4; stroke: #1f77b4"/>
     </g>
    </g>
    <g id="line2d_23">
     <path d="M 72 47.06 
L 92 47.06 
" style="fill: none; stroke-dasharray: 4,6.6; stroke-dashoffset: 0; stroke: #1f77b4; stroke-width: 4"/>
    </g>
    <g id="line2d_24">
     <g>
      <use xlink:href="#ma88d47f27f" x="82" y="47.06" style="fill: #1f77b4; stroke: #1f77b4"/>
     </g>
    </g>
    <g id="text_15">
     <!-- Full Computational graph -->
     <g transform="translate(100 50.56) scale(0.1 -0.1)">
      <defs>
       <path id="CMR17-46" d="M 3482 4339 
L 326 4339 
L 326 4172 
C 768 4172 838 4172 838 3883 
L 838 450 
C 838 166 768 166 326 166 
L 326 0 
C 512 12 870 12 1069 12 
C 1331 12 1638 12 1901 0 
L 1901 166 
L 1760 166 
C 1274 166 1261 229 1261 456 
L 1261 2073 
L 1837 2073 
C 2432 2073 2490 1865 2490 1334 
L 2605 1334 
L 2605 2991 
L 2490 2991 
C 2490 2451 2432 2240 1837 2240 
L 1261 2240 
L 1261 3922 
C 1261 4140 1274 4172 1530 4172 
L 2355 4172 
C 3322 4172 3430 3774 3520 2920 
L 3635 2920 
L 3482 4339 
z
" transform="scale(0.015625)"/>
       <path id="CMR17-43" d="M 3974 4351 
C 3974 4467 3968 4473 3930 4473 
C 3904 4473 3898 4467 3853 4390 
L 3571 3849 
C 3258 4249 2874 4480 2381 4480 
C 1286 4480 294 3507 294 2179 
C 294 837 1286 -128 2387 -128 
C 3366 -128 3974 741 3974 1482 
C 3974 1547 3974 1573 3917 1573 
C 3866 1573 3866 1553 3859 1495 
C 3808 592 3168 38 2477 38 
C 1824 38 781 502 781 2179 
C 781 3862 1843 4313 2464 4313 
C 3187 4313 3712 3681 3834 2785 
C 3846 2707 3846 2695 3904 2695 
C 3974 2695 3974 2707 3974 2824 
L 3974 4351 
z
" transform="scale(0.015625)"/>
      </defs>
      <use xlink:href="#CMR17-46" transform="scale(0.996264)"/>
      <use xlink:href="#CMR17-75" transform="translate(52.176591 0) scale(0.996264)"/>
      <use xlink:href="#CMR17-6c" transform="translate(103.071961 0) scale(0.996264)"/>
      <use xlink:href="#CMR17-6c" transform="translate(127.943019 0) scale(0.996264)"/>
      <use xlink:href="#CMR17-43" transform="translate(182.890044 0) scale(0.996264)"/>
      <use xlink:href="#CMR17-6f" transform="translate(249.399925 0) scale(0.996264)"/>
      <use xlink:href="#CMR17-6d" transform="translate(295.090402 0) scale(0.996264)"/>
      <use xlink:href="#CMR17-70" transform="translate(372.009992 0) scale(0.996264)"/>
      <use xlink:href="#CMR17-75" transform="translate(422.905362 0) scale(0.996264)"/>
      <use xlink:href="#CMR17-74" transform="translate(473.800731 0) scale(0.996264)"/>
      <use xlink:href="#CMR17-61" transform="translate(509.081499 0) scale(0.996264)"/>
      <use xlink:href="#CMR17-74" transform="translate(554.771976 0) scale(0.996264)"/>
      <use xlink:href="#CMR17-69" transform="translate(590.052744 0) scale(0.996264)"/>
      <use xlink:href="#CMR17-6f" transform="translate(614.923803 0) scale(0.996264)"/>
      <use xlink:href="#CMR17-6e" transform="translate(660.61428 0) scale(0.996264)"/>
      <use xlink:href="#CMR17-61" transform="translate(711.509649 0) scale(0.996264)"/>
      <use xlink:href="#CMR17-6c" transform="translate(757.200127 0) scale(0.996264)"/>
      <use xlink:href="#CMR17-67" transform="translate(812.147151 0) scale(0.996264)"/>
      <use xlink:href="#CMR17-72" transform="translate(857.837629 0) scale(0.996264)"/>
      <use xlink:href="#CMR17-61" transform="translate(893.118396 0) scale(0.996264)"/>
      <use xlink:href="#CMR17-70" transform="translate(938.808873 0) scale(0.996264)"/>
      <use xlink:href="#CMR17-68" transform="translate(989.704243 0) scale(0.996264)"/>
     </g>
    </g>
    <g id="LineCollection_5">
     <path d="M 82 66.469158 
L 82 56.469158 
" style="fill: none; stroke: #ff7f0e; stroke-width: 4"/>
    </g>
    <g id="line2d_25">
     <g>
      <use xlink:href="#mc99c6ba2e8" x="82" y="66.469158" style="fill: #ff7f0e; stroke: #ff7f0e"/>
     </g>
    </g>
    <g id="line2d_26">
     <g>
      <use xlink:href="#mc99c6ba2e8" x="82" y="56.469158" style="fill: #ff7f0e; stroke: #ff7f0e"/>
     </g>
    </g>
    <g id="line2d_27">
     <path d="M 72 61.469158 
L 92 61.469158 
" style="fill: none; stroke-dasharray: 4,6.6; stroke-dashoffset: 0; stroke: #ff7f0e; stroke-width: 4"/>
    </g>
    <g id="line2d_28">
     <g>
      <use xlink:href="#m3686276e8b" x="82" y="61.469158" style="fill: #ff7f0e; stroke: #ff7f0e; stroke-linejoin: miter"/>
     </g>
    </g>
    <g id="text_16">
     <!-- EGA (first order Jacobian) -->
     <g transform="translate(100 64.969158) scale(0.1 -0.1)">
      <defs>
       <path id="CMR17-45" d="M 3885 1614 
L 3770 1614 
C 3629 676 3546 166 2419 166 
L 1530 166 
C 1274 166 1261 198 1261 415 
L 1261 2176 
L 1862 2176 
C 2464 2176 2522 1959 2522 1429 
L 2637 1429 
L 2637 3086 
L 2522 3086 
C 2522 2558 2464 2342 1862 2342 
L 1261 2342 
L 1261 3924 
C 1261 4141 1274 4172 1530 4172 
L 2406 4172 
C 3398 4172 3514 3778 3603 2933 
L 3718 2933 
L 3565 4339 
L 326 4339 
L 326 4172 
C 768 4172 838 4172 838 3886 
L 838 453 
C 838 166 768 166 326 166 
L 326 0 
L 3654 0 
L 3885 1614 
z
" transform="scale(0.015625)"/>
       <path id="CMR17-47" d="M 3974 1258 
C 3974 1503 3994 1536 4390 1536 
L 4390 1702 
C 4237 1689 3891 1689 3718 1689 
C 3539 1689 3040 1696 2797 1702 
L 2797 1536 
L 2989 1536 
C 3539 1536 3552 1464 3552 1232 
L 3552 806 
C 3552 96 2720 38 2522 38 
C 1862 38 781 496 781 2179 
C 781 3862 1843 4313 2464 4313 
C 3187 4313 3712 3681 3834 2785 
C 3846 2708 3846 2695 3904 2695 
C 3974 2695 3974 2708 3974 2824 
L 3974 4351 
C 3974 4467 3968 4473 3930 4473 
C 3904 4473 3898 4467 3853 4390 
L 3571 3849 
C 3258 4249 2874 4480 2381 4480 
C 1286 4480 294 3507 294 2179 
C 294 858 1267 -128 2394 -128 
C 2912 -128 3418 57 3616 425 
C 3725 161 3904 -20 3936 -20 
C 3968 -20 3974 -13 3974 102 
L 3974 1258 
z
" transform="scale(0.015625)"/>
       <path id="CMR17-41" d="M 2323 4441 
C 2291 4524 2278 4544 2214 4544 
C 2150 4544 2138 4524 2106 4441 
L 749 580 
C 627 236 371 166 147 166 
L 147 0 
C 262 12 518 12 640 12 
C 800 12 1056 12 1210 0 
L 1210 166 
C 909 179 864 382 864 459 
C 864 516 877 548 890 586 
L 1229 1536 
L 2906 1536 
L 3290 453 
C 3322 376 3322 363 3322 338 
C 3322 166 3046 166 2925 166 
L 2925 0 
C 3110 12 3443 12 3642 12 
C 3808 12 4128 12 4282 0 
L 4282 166 
C 3942 166 3827 166 3744 402 
L 2323 4441 
z
M 2067 3924 
L 2848 1702 
L 1286 1702 
L 2067 3924 
z
" transform="scale(0.015625)"/>
       <path id="CMR17-c" d="M 2554 2816 
C 2400 2809 1926 2777 1805 2764 
C 1766 2758 1754 2758 1677 2758 
L 947 2758 
L 947 3517 
C 947 4127 1434 4416 1818 4416 
C 1939 4416 2214 4383 2355 4160 
C 2291 4160 2086 4160 2086 3935 
C 2086 3782 2189 3705 2317 3705 
C 2432 3705 2547 3769 2547 3942 
C 2547 4265 2240 4518 1843 4518 
C 1338 4518 634 4225 634 3517 
L 634 2758 
L 122 2758 
L 122 2591 
L 634 2591 
L 634 442 
C 634 198 608 166 198 166 
L 198 0 
C 352 12 634 12 794 12 
C 960 12 1242 12 1395 0 
L 1395 166 
C 986 166 960 192 960 442 
L 960 2591 
L 1901 2591 
C 2176 2591 2227 2534 2227 2251 
L 2227 442 
C 2227 198 2202 166 1792 166 
L 1792 0 
C 1946 12 2227 12 2387 12 
C 2554 12 2835 12 2989 0 
L 2989 166 
C 2579 166 2554 192 2554 442 
L 2554 2816 
z
" transform="scale(0.015625)"/>
       <path id="CMR17-64" d="M 1869 4345 
L 1869 4179 
C 2246 4179 2304 4141 2304 3843 
L 2304 2371 
C 2278 2403 2016 2816 1498 2816 
C 845 2816 211 2228 211 1376 
C 211 529 806 -64 1434 -64 
C 1978 -64 2259 361 2291 406 
L 2291 -64 
L 3066 -13 
L 3066 154 
C 2688 154 2630 193 2630 503 
L 2630 4416 
L 1869 4345 
z
M 2291 762 
C 2291 568 2176 393 2029 264 
C 1811 70 1594 38 1472 38 
C 1286 38 621 135 621 1369 
C 621 2636 1363 2713 1530 2713 
C 1824 2713 2061 2545 2208 2313 
C 2291 2177 2291 2157 2291 2041 
L 2291 762 
z
" transform="scale(0.015625)"/>
       <path id="CMR17-4a" d="M 1888 902 
C 1888 316 1568 -26 1242 -26 
C 1075 -26 691 49 525 428 
C 550 422 582 415 608 415 
C 730 415 883 499 883 691 
C 883 844 774 960 614 960 
C 461 960 339 863 339 678 
C 339 254 730 -128 1254 -128 
C 1754 -128 2214 223 2291 755 
C 2298 799 2298 812 2298 1030 
L 2298 3734 
C 2298 3844 2298 4024 2310 4063 
C 2336 4185 2483 4185 2682 4185 
L 2682 4352 
C 2669 4352 2214 4339 2054 4339 
C 1786 4339 1491 4339 1222 4352 
L 1222 4185 
L 1376 4185 
C 1875 4185 1888 4114 1888 3883 
L 1888 902 
z
" transform="scale(0.015625)"/>
      </defs>
      <use xlink:href="#CMR17-45" transform="scale(0.996264)"/>
      <use xlink:href="#CMR17-47" transform="translate(62.586301 0) scale(0.996264)"/>
      <use xlink:href="#CMR17-41" transform="translate(134.941646 0) scale(0.996264)"/>
      <use xlink:href="#CMR17-28" transform="translate(234.090043 0) scale(0.996264)"/>
      <use xlink:href="#CMR17-c" transform="translate(269.37081 0) scale(0.996264)"/>
      <use xlink:href="#CMR17-72" transform="translate(319.113034 0) scale(0.996264)"/>
      <use xlink:href="#CMR17-73" transform="translate(354.393802 0) scale(0.996264)"/>
      <use xlink:href="#CMR17-74" transform="translate(390.195139 0) scale(0.996264)"/>
      <use xlink:href="#CMR17-6f" transform="translate(455.551873 0) scale(0.996264)"/>
      <use xlink:href="#CMR17-72" transform="translate(501.24235 0) scale(0.996264)"/>
      <use xlink:href="#CMR17-64" transform="translate(536.523118 0) scale(0.996264)"/>
      <use xlink:href="#CMR17-65" transform="translate(587.418488 0) scale(0.996264)"/>
      <use xlink:href="#CMR17-72" transform="translate(627.904149 0) scale(0.996264)"/>
      <use xlink:href="#CMR17-4a" transform="translate(693.260883 0) scale(0.996264)"/>
      <use xlink:href="#CMR17-61" transform="translate(740.232672 0) scale(0.996264)"/>
      <use xlink:href="#CMR17-63" transform="translate(785.92315 0) scale(0.996264)"/>
      <use xlink:href="#CMR17-6f" transform="translate(826.40881 0) scale(0.996264)"/>
      <use xlink:href="#CMR17-62" transform="translate(872.099287 0) scale(0.996264)"/>
      <use xlink:href="#CMR17-69" transform="translate(922.994657 0) scale(0.996264)"/>
      <use xlink:href="#CMR17-61" transform="translate(947.865715 0) scale(0.996264)"/>
      <use xlink:href="#CMR17-6e" transform="translate(993.556192 0) scale(0.996264)"/>
      <use xlink:href="#CMR17-29" transform="translate(1044.451562 0) scale(0.996264)"/>
     </g>
    </g>
    <g id="LineCollection_6">
     <path d="M 82 80.959818 
L 82 70.959818 
" style="fill: none; stroke: #2ca02c; stroke-width: 4"/>
    </g>
    <g id="line2d_29">
     <g>
      <use xlink:href="#m1c49c29c4f" x="82" y="80.959818" style="fill: #2ca02c; stroke: #2ca02c"/>
     </g>
    </g>
    <g id="line2d_30">
     <g>
      <use xlink:href="#m1c49c29c4f" x="82" y="70.959818" style="fill: #2ca02c; stroke: #2ca02c"/>
     </g>
    </g>
    <g id="line2d_31">
     <path d="M 72 75.959818 
L 92 75.959818 
" style="fill: none; stroke-dasharray: 4,6.6; stroke-dashoffset: 0; stroke: #2ca02c; stroke-width: 4"/>
    </g>
    <g id="line2d_32">
     <g>
      <use xlink:href="#m864563a50b" x="82" y="75.959818" style="fill: #2ca02c; stroke: #2ca02c; stroke-linejoin: miter"/>
     </g>
    </g>
    <g id="text_17">
     <!-- Static EGA -->
     <g transform="translate(100 79.459818) scale(0.1 -0.1)">
      <use xlink:href="#CMR17-53" transform="scale(0.996264)"/>
      <use xlink:href="#CMR17-74" transform="translate(50.89537 0) scale(0.996264)"/>
      <use xlink:href="#CMR17-61" transform="translate(86.176138 0) scale(0.996264)"/>
      <use xlink:href="#CMR17-74" transform="translate(131.866615 0) scale(0.996264)"/>
      <use xlink:href="#CMR17-69" transform="translate(167.147382 0) scale(0.996264)"/>
      <use xlink:href="#CMR17-63" transform="translate(192.018441 0) scale(0.996264)"/>
      <use xlink:href="#CMR17-45" transform="translate(262.580068 0) scale(0.996264)"/>
      <use xlink:href="#CMR17-47" transform="translate(325.166368 0) scale(0.996264)"/>
      <use xlink:href="#CMR17-41" transform="translate(397.521714 0) scale(0.996264)"/>
     </g>
    </g>
   </g>
  </g>
 </g>
 <defs>
  <clipPath id="p2ff8ae11f4">
   <rect x="63" y="34.56" width="390.6" height="221.76"/>
  </clipPath>
 </defs>
</svg>
