<?xml version="1.0" encoding="utf-8" standalone="no"?>
<!DOCTYPE svg PUBLIC "-//W3C//DTD SVG 1.1//EN"
  "http://www.w3.org/Graphics/SVG/1.1/DTD/svg11.dtd">
<svg xmlns:xlink="http://www.w3.org/1999/xlink" width="504pt" height="288pt" viewBox="0 0 504 288" xmlns="http://www.w3.org/2000/svg" version="1.1">
 <metadata>
  <rdf:RDF xmlns:dc="http://purl.org/dc/elements/1.1/" xmlns:cc="http://creativecommons.org/ns#" xmlns:rdf="http://www.w3.org/1999/02/22-rdf-syntax-ns#">
   <cc:Work>
    <dc:type rdf:resource="http://purl.org/dc/dcmitype/StillImage"/>
    <dc:date>2024-09-05T15:23:41.684627</dc:date>
    <dc:format>image/svg+xml</dc:format>
    <dc:creator>
     <cc:Agent>
      <dc:title>Matplotlib v3.7.3, https://matplotlib.org/</dc:title>
     </cc:Agent>
    </dc:creator>
   </cc:Work>
  </rdf:RDF>
 </metadata>
 <defs>
  <style type="text/css">*{stroke-linejoin: round; stroke-linecap: butt}</style>
 </defs>
 <g id="figure_1">
  <g id="patch_1">
   <path d="M 0 288 
L 504 288 
L 504 0 
L 0 0 
z
" style="fill: #ffffff"/>
  </g>
  <g id="axes_1">
   <g id="patch_2">
    <path d="M 63 256.32 
L 453.6 256.32 
L 453.6 34.56 
L 63 34.56 
z
" style="fill: #ffffff"/>
   </g>
   <g id="matplotlib.axis_1">
    <g id="xtick_1">
     <g id="line2d_1">
      <defs>
       <path id="m81c0ec9836" d="M 0 0 
L 0 3.5 
" style="stroke: #000000; stroke-width: 0.8"/>
      </defs>
      <g>
       <use xlink:href="#m81c0ec9836" x="77.167769" y="256.32" style="stroke: #000000; stroke-width: 0.8"/>
      </g>
     </g>
     <g id="text_1">
      <!-- 0 -->
      <g transform="translate(73.986519 270.918437) scale(0.1 -0.1)">
       <defs>
        <path id="DejaVuSans-30" d="M 2034 4250 
Q 1547 4250 1301 3770 
Q 1056 3291 1056 2328 
Q 1056 1369 1301 889 
Q 1547 409 2034 409 
Q 2525 409 2770 889 
Q 3016 1369 3016 2328 
Q 3016 3291 2770 3770 
Q 2525 4250 2034 4250 
z
M 2034 4750 
Q 2819 4750 3233 4129 
Q 3647 3509 3647 2328 
Q 3647 1150 3233 529 
Q 2819 -91 2034 -91 
Q 1250 -91 836 529 
Q 422 1150 422 2328 
Q 422 3509 836 4129 
Q 1250 4750 2034 4750 
z
" transform="scale(0.015625)"/>
       </defs>
       <use xlink:href="#DejaVuSans-30"/>
      </g>
     </g>
    </g>
    <g id="xtick_2">
     <g id="line2d_2">
      <g>
       <use xlink:href="#m81c0ec9836" x="148.903306" y="256.32" style="stroke: #000000; stroke-width: 0.8"/>
      </g>
     </g>
     <g id="text_2">
      <!-- 200 -->
      <g transform="translate(139.359556 270.918437) scale(0.1 -0.1)">
       <defs>
        <path id="DejaVuSans-32" d="M 1228 531 
L 3431 531 
L 3431 0 
L 469 0 
L 469 531 
Q 828 903 1448 1529 
Q 2069 2156 2228 2338 
Q 2531 2678 2651 2914 
Q 2772 3150 2772 3378 
Q 2772 3750 2511 3984 
Q 2250 4219 1831 4219 
Q 1534 4219 1204 4116 
Q 875 4013 500 3803 
L 500 4441 
Q 881 4594 1212 4672 
Q 1544 4750 1819 4750 
Q 2544 4750 2975 4387 
Q 3406 4025 3406 3419 
Q 3406 3131 3298 2873 
Q 3191 2616 2906 2266 
Q 2828 2175 2409 1742 
Q 1991 1309 1228 531 
z
" transform="scale(0.015625)"/>
       </defs>
       <use xlink:href="#DejaVuSans-32"/>
       <use xlink:href="#DejaVuSans-30" x="63.623047"/>
       <use xlink:href="#DejaVuSans-30" x="127.246094"/>
      </g>
     </g>
    </g>
    <g id="xtick_3">
     <g id="line2d_3">
      <g>
       <use xlink:href="#m81c0ec9836" x="220.638843" y="256.32" style="stroke: #000000; stroke-width: 0.8"/>
      </g>
     </g>
     <g id="text_3">
      <!-- 400 -->
      <g transform="translate(211.095093 270.918437) scale(0.1 -0.1)">
       <defs>
        <path id="DejaVuSans-34" d="M 2419 4116 
L 825 1625 
L 2419 1625 
L 2419 4116 
z
M 2253 4666 
L 3047 4666 
L 3047 1625 
L 3713 1625 
L 3713 1100 
L 3047 1100 
L 3047 0 
L 2419 0 
L 2419 1100 
L 313 1100 
L 313 1709 
L 2253 4666 
z
" transform="scale(0.015625)"/>
       </defs>
       <use xlink:href="#DejaVuSans-34"/>
       <use xlink:href="#DejaVuSans-30" x="63.623047"/>
       <use xlink:href="#DejaVuSans-30" x="127.246094"/>
      </g>
     </g>
    </g>
    <g id="xtick_4">
     <g id="line2d_4">
      <g>
       <use xlink:href="#m81c0ec9836" x="292.37438" y="256.32" style="stroke: #000000; stroke-width: 0.8"/>
      </g>
     </g>
     <g id="text_4">
      <!-- 600 -->
      <g transform="translate(282.83063 270.918437) scale(0.1 -0.1)">
       <defs>
        <path id="DejaVuSans-36" d="M 2113 2584 
Q 1688 2584 1439 2293 
Q 1191 2003 1191 1497 
Q 1191 994 1439 701 
Q 1688 409 2113 409 
Q 2538 409 2786 701 
Q 3034 994 3034 1497 
Q 3034 2003 2786 2293 
Q 2538 2584 2113 2584 
z
M 3366 4563 
L 3366 3988 
Q 3128 4100 2886 4159 
Q 2644 4219 2406 4219 
Q 1781 4219 1451 3797 
Q 1122 3375 1075 2522 
Q 1259 2794 1537 2939 
Q 1816 3084 2150 3084 
Q 2853 3084 3261 2657 
Q 3669 2231 3669 1497 
Q 3669 778 3244 343 
Q 2819 -91 2113 -91 
Q 1303 -91 875 529 
Q 447 1150 447 2328 
Q 447 3434 972 4092 
Q 1497 4750 2381 4750 
Q 2619 4750 2861 4703 
Q 3103 4656 3366 4563 
z
" transform="scale(0.015625)"/>
       </defs>
       <use xlink:href="#DejaVuSans-36"/>
       <use xlink:href="#DejaVuSans-30" x="63.623047"/>
       <use xlink:href="#DejaVuSans-30" x="127.246094"/>
      </g>
     </g>
    </g>
    <g id="xtick_5">
     <g id="line2d_5">
      <g>
       <use xlink:href="#m81c0ec9836" x="364.109917" y="256.32" style="stroke: #000000; stroke-width: 0.8"/>
      </g>
     </g>
     <g id="text_5">
      <!-- 800 -->
      <g transform="translate(354.566167 270.918437) scale(0.1 -0.1)">
       <defs>
        <path id="DejaVuSans-38" d="M 2034 2216 
Q 1584 2216 1326 1975 
Q 1069 1734 1069 1313 
Q 1069 891 1326 650 
Q 1584 409 2034 409 
Q 2484 409 2743 651 
Q 3003 894 3003 1313 
Q 3003 1734 2745 1975 
Q 2488 2216 2034 2216 
z
M 1403 2484 
Q 997 2584 770 2862 
Q 544 3141 544 3541 
Q 544 4100 942 4425 
Q 1341 4750 2034 4750 
Q 2731 4750 3128 4425 
Q 3525 4100 3525 3541 
Q 3525 3141 3298 2862 
Q 3072 2584 2669 2484 
Q 3125 2378 3379 2068 
Q 3634 1759 3634 1313 
Q 3634 634 3220 271 
Q 2806 -91 2034 -91 
Q 1263 -91 848 271 
Q 434 634 434 1313 
Q 434 1759 690 2068 
Q 947 2378 1403 2484 
z
M 1172 3481 
Q 1172 3119 1398 2916 
Q 1625 2713 2034 2713 
Q 2441 2713 2670 2916 
Q 2900 3119 2900 3481 
Q 2900 3844 2670 4047 
Q 2441 4250 2034 4250 
Q 1625 4250 1398 4047 
Q 1172 3844 1172 3481 
z
" transform="scale(0.015625)"/>
       </defs>
       <use xlink:href="#DejaVuSans-38"/>
       <use xlink:href="#DejaVuSans-30" x="63.623047"/>
       <use xlink:href="#DejaVuSans-30" x="127.246094"/>
      </g>
     </g>
    </g>
    <g id="xtick_6">
     <g id="line2d_6">
      <g>
       <use xlink:href="#m81c0ec9836" x="435.845455" y="256.32" style="stroke: #000000; stroke-width: 0.8"/>
      </g>
     </g>
     <g id="text_6">
      <!-- 1000 -->
      <g transform="translate(423.120455 270.918437) scale(0.1 -0.1)">
       <defs>
        <path id="DejaVuSans-31" d="M 794 531 
L 1825 531 
L 1825 4091 
L 703 3866 
L 703 4441 
L 1819 4666 
L 2450 4666 
L 2450 531 
L 3481 531 
L 3481 0 
L 794 0 
L 794 531 
z
" transform="scale(0.015625)"/>
       </defs>
       <use xlink:href="#DejaVuSans-31"/>
       <use xlink:href="#DejaVuSans-30" x="63.623047"/>
       <use xlink:href="#DejaVuSans-30" x="127.246094"/>
       <use xlink:href="#DejaVuSans-30" x="190.869141"/>
      </g>
     </g>
    </g>
    <g id="text_7">
     <!-- Number of solver steps $(n)$ -->
     <g transform="translate(191.4 284.598125) scale(0.1 -0.1)">
      <defs>
       <path id="DejaVuSans-4e" d="M 628 4666 
L 1478 4666 
L 3547 763 
L 3547 4666 
L 4159 4666 
L 4159 0 
L 3309 0 
L 1241 3903 
L 1241 0 
L 628 0 
L 628 4666 
z
" transform="scale(0.015625)"/>
       <path id="DejaVuSans-75" d="M 544 1381 
L 544 3500 
L 1119 3500 
L 1119 1403 
Q 1119 906 1312 657 
Q 1506 409 1894 409 
Q 2359 409 2629 706 
Q 2900 1003 2900 1516 
L 2900 3500 
L 3475 3500 
L 3475 0 
L 2900 0 
L 2900 538 
Q 2691 219 2414 64 
Q 2138 -91 1772 -91 
Q 1169 -91 856 284 
Q 544 659 544 1381 
z
M 1991 3584 
L 1991 3584 
z
" transform="scale(0.015625)"/>
       <path id="DejaVuSans-6d" d="M 3328 2828 
Q 3544 3216 3844 3400 
Q 4144 3584 4550 3584 
Q 5097 3584 5394 3201 
Q 5691 2819 5691 2113 
L 5691 0 
L 5113 0 
L 5113 2094 
Q 5113 2597 4934 2840 
Q 4756 3084 4391 3084 
Q 3944 3084 3684 2787 
Q 3425 2491 3425 1978 
L 3425 0 
L 2847 0 
L 2847 2094 
Q 2847 2600 2669 2842 
Q 2491 3084 2119 3084 
Q 1678 3084 1418 2786 
Q 1159 2488 1159 1978 
L 1159 0 
L 581 0 
L 581 3500 
L 1159 3500 
L 1159 2956 
Q 1356 3278 1631 3431 
Q 1906 3584 2284 3584 
Q 2666 3584 2933 3390 
Q 3200 3197 3328 2828 
z
" transform="scale(0.015625)"/>
       <path id="DejaVuSans-62" d="M 3116 1747 
Q 3116 2381 2855 2742 
Q 2594 3103 2138 3103 
Q 1681 3103 1420 2742 
Q 1159 2381 1159 1747 
Q 1159 1113 1420 752 
Q 1681 391 2138 391 
Q 2594 391 2855 752 
Q 3116 1113 3116 1747 
z
M 1159 2969 
Q 1341 3281 1617 3432 
Q 1894 3584 2278 3584 
Q 2916 3584 3314 3078 
Q 3713 2572 3713 1747 
Q 3713 922 3314 415 
Q 2916 -91 2278 -91 
Q 1894 -91 1617 61 
Q 1341 213 1159 525 
L 1159 0 
L 581 0 
L 581 4863 
L 1159 4863 
L 1159 2969 
z
" transform="scale(0.015625)"/>
       <path id="DejaVuSans-65" d="M 3597 1894 
L 3597 1613 
L 953 1613 
Q 991 1019 1311 708 
Q 1631 397 2203 397 
Q 2534 397 2845 478 
Q 3156 559 3463 722 
L 3463 178 
Q 3153 47 2828 -22 
Q 2503 -91 2169 -91 
Q 1331 -91 842 396 
Q 353 884 353 1716 
Q 353 2575 817 3079 
Q 1281 3584 2069 3584 
Q 2775 3584 3186 3129 
Q 3597 2675 3597 1894 
z
M 3022 2063 
Q 3016 2534 2758 2815 
Q 2500 3097 2075 3097 
Q 1594 3097 1305 2825 
Q 1016 2553 972 2059 
L 3022 2063 
z
" transform="scale(0.015625)"/>
       <path id="DejaVuSans-72" d="M 2631 2963 
Q 2534 3019 2420 3045 
Q 2306 3072 2169 3072 
Q 1681 3072 1420 2755 
Q 1159 2438 1159 1844 
L 1159 0 
L 581 0 
L 581 3500 
L 1159 3500 
L 1159 2956 
Q 1341 3275 1631 3429 
Q 1922 3584 2338 3584 
Q 2397 3584 2469 3576 
Q 2541 3569 2628 3553 
L 2631 2963 
z
" transform="scale(0.015625)"/>
       <path id="DejaVuSans-20" transform="scale(0.015625)"/>
       <path id="DejaVuSans-6f" d="M 1959 3097 
Q 1497 3097 1228 2736 
Q 959 2375 959 1747 
Q 959 1119 1226 758 
Q 1494 397 1959 397 
Q 2419 397 2687 759 
Q 2956 1122 2956 1747 
Q 2956 2369 2687 2733 
Q 2419 3097 1959 3097 
z
M 1959 3584 
Q 2709 3584 3137 3096 
Q 3566 2609 3566 1747 
Q 3566 888 3137 398 
Q 2709 -91 1959 -91 
Q 1206 -91 779 398 
Q 353 888 353 1747 
Q 353 2609 779 3096 
Q 1206 3584 1959 3584 
z
" transform="scale(0.015625)"/>
       <path id="DejaVuSans-66" d="M 2375 4863 
L 2375 4384 
L 1825 4384 
Q 1516 4384 1395 4259 
Q 1275 4134 1275 3809 
L 1275 3500 
L 2222 3500 
L 2222 3053 
L 1275 3053 
L 1275 0 
L 697 0 
L 697 3053 
L 147 3053 
L 147 3500 
L 697 3500 
L 697 3744 
Q 697 4328 969 4595 
Q 1241 4863 1831 4863 
L 2375 4863 
z
" transform="scale(0.015625)"/>
       <path id="DejaVuSans-73" d="M 2834 3397 
L 2834 2853 
Q 2591 2978 2328 3040 
Q 2066 3103 1784 3103 
Q 1356 3103 1142 2972 
Q 928 2841 928 2578 
Q 928 2378 1081 2264 
Q 1234 2150 1697 2047 
L 1894 2003 
Q 2506 1872 2764 1633 
Q 3022 1394 3022 966 
Q 3022 478 2636 193 
Q 2250 -91 1575 -91 
Q 1294 -91 989 -36 
Q 684 19 347 128 
L 347 722 
Q 666 556 975 473 
Q 1284 391 1588 391 
Q 1994 391 2212 530 
Q 2431 669 2431 922 
Q 2431 1156 2273 1281 
Q 2116 1406 1581 1522 
L 1381 1569 
Q 847 1681 609 1914 
Q 372 2147 372 2553 
Q 372 3047 722 3315 
Q 1072 3584 1716 3584 
Q 2034 3584 2315 3537 
Q 2597 3491 2834 3397 
z
" transform="scale(0.015625)"/>
       <path id="DejaVuSans-6c" d="M 603 4863 
L 1178 4863 
L 1178 0 
L 603 0 
L 603 4863 
z
" transform="scale(0.015625)"/>
       <path id="DejaVuSans-76" d="M 191 3500 
L 800 3500 
L 1894 563 
L 2988 3500 
L 3597 3500 
L 2284 0 
L 1503 0 
L 191 3500 
z
" transform="scale(0.015625)"/>
       <path id="DejaVuSans-74" d="M 1172 4494 
L 1172 3500 
L 2356 3500 
L 2356 3053 
L 1172 3053 
L 1172 1153 
Q 1172 725 1289 603 
Q 1406 481 1766 481 
L 2356 481 
L 2356 0 
L 1766 0 
Q 1100 0 847 248 
Q 594 497 594 1153 
L 594 3053 
L 172 3053 
L 172 3500 
L 594 3500 
L 594 4494 
L 1172 4494 
z
" transform="scale(0.015625)"/>
       <path id="DejaVuSans-70" d="M 1159 525 
L 1159 -1331 
L 581 -1331 
L 581 3500 
L 1159 3500 
L 1159 2969 
Q 1341 3281 1617 3432 
Q 1894 3584 2278 3584 
Q 2916 3584 3314 3078 
Q 3713 2572 3713 1747 
Q 3713 922 3314 415 
Q 2916 -91 2278 -91 
Q 1894 -91 1617 61 
Q 1341 213 1159 525 
z
M 3116 1747 
Q 3116 2381 2855 2742 
Q 2594 3103 2138 3103 
Q 1681 3103 1420 2742 
Q 1159 2381 1159 1747 
Q 1159 1113 1420 752 
Q 1681 391 2138 391 
Q 2594 391 2855 752 
Q 3116 1113 3116 1747 
z
" transform="scale(0.015625)"/>
       <path id="DejaVuSans-28" d="M 1984 4856 
Q 1566 4138 1362 3434 
Q 1159 2731 1159 2009 
Q 1159 1288 1364 580 
Q 1569 -128 1984 -844 
L 1484 -844 
Q 1016 -109 783 600 
Q 550 1309 550 2009 
Q 550 2706 781 3412 
Q 1013 4119 1484 4856 
L 1984 4856 
z
" transform="scale(0.015625)"/>
       <path id="DejaVuSans-Oblique-6e" d="M 3566 2113 
L 3156 0 
L 2578 0 
L 2988 2091 
Q 3016 2238 3031 2350 
Q 3047 2463 3047 2528 
Q 3047 2791 2881 2937 
Q 2716 3084 2419 3084 
Q 1956 3084 1622 2776 
Q 1288 2469 1184 1941 
L 800 0 
L 225 0 
L 903 3500 
L 1478 3500 
L 1363 2950 
Q 1603 3253 1940 3418 
Q 2278 3584 2650 3584 
Q 3113 3584 3367 3334 
Q 3622 3084 3622 2631 
Q 3622 2519 3608 2391 
Q 3594 2263 3566 2113 
z
" transform="scale(0.015625)"/>
       <path id="DejaVuSans-29" d="M 513 4856 
L 1013 4856 
Q 1481 4119 1714 3412 
Q 1947 2706 1947 2009 
Q 1947 1309 1714 600 
Q 1481 -109 1013 -844 
L 513 -844 
Q 928 -128 1133 580 
Q 1338 1288 1338 2009 
Q 1338 2731 1133 3434 
Q 928 4138 513 4856 
z
" transform="scale(0.015625)"/>
      </defs>
      <use xlink:href="#DejaVuSans-4e" transform="translate(0 0.015625)"/>
      <use xlink:href="#DejaVuSans-75" transform="translate(74.804688 0.015625)"/>
      <use xlink:href="#DejaVuSans-6d" transform="translate(138.183594 0.015625)"/>
      <use xlink:href="#DejaVuSans-62" transform="translate(235.595703 0.015625)"/>
      <use xlink:href="#DejaVuSans-65" transform="translate(299.072266 0.015625)"/>
      <use xlink:href="#DejaVuSans-72" transform="translate(360.595703 0.015625)"/>
      <use xlink:href="#DejaVuSans-20" transform="translate(401.708984 0.015625)"/>
      <use xlink:href="#DejaVuSans-6f" transform="translate(433.496094 0.015625)"/>
      <use xlink:href="#DejaVuSans-66" transform="translate(494.677734 0.015625)"/>
      <use xlink:href="#DejaVuSans-20" transform="translate(529.882812 0.015625)"/>
      <use xlink:href="#DejaVuSans-73" transform="translate(561.669922 0.015625)"/>
      <use xlink:href="#DejaVuSans-6f" transform="translate(613.769531 0.015625)"/>
      <use xlink:href="#DejaVuSans-6c" transform="translate(674.951172 0.015625)"/>
      <use xlink:href="#DejaVuSans-76" transform="translate(702.734375 0.015625)"/>
      <use xlink:href="#DejaVuSans-65" transform="translate(761.914062 0.015625)"/>
      <use xlink:href="#DejaVuSans-72" transform="translate(823.4375 0.015625)"/>
      <use xlink:href="#DejaVuSans-20" transform="translate(864.550781 0.015625)"/>
      <use xlink:href="#DejaVuSans-73" transform="translate(896.337891 0.015625)"/>
      <use xlink:href="#DejaVuSans-74" transform="translate(948.4375 0.015625)"/>
      <use xlink:href="#DejaVuSans-65" transform="translate(987.646484 0.015625)"/>
      <use xlink:href="#DejaVuSans-70" transform="translate(1049.169922 0.015625)"/>
      <use xlink:href="#DejaVuSans-73" transform="translate(1112.646484 0.015625)"/>
      <use xlink:href="#DejaVuSans-20" transform="translate(1164.746094 0.015625)"/>
      <use xlink:href="#DejaVuSans-28" transform="translate(1196.533203 0.015625)"/>
      <use xlink:href="#DejaVuSans-Oblique-6e" transform="translate(1235.546875 0.015625)"/>
      <use xlink:href="#DejaVuSans-29" transform="translate(1298.925781 0.015625)"/>
     </g>
    </g>
   </g>
   <g id="matplotlib.axis_2">
    <g id="ytick_1">
     <g id="line2d_7">
      <defs>
       <path id="mff9b9b68bc" d="M 0 0 
L -3.5 0 
" style="stroke: #000000; stroke-width: 0.8"/>
      </defs>
      <g>
       <use xlink:href="#mff9b9b68bc" x="63" y="246.515842" style="stroke: #000000; stroke-width: 0.8"/>
      </g>
     </g>
     <g id="text_8">
      <!-- 0.0 -->
      <g transform="translate(40.096875 250.315061) scale(0.1 -0.1)">
       <defs>
        <path id="DejaVuSans-2e" d="M 684 794 
L 1344 794 
L 1344 0 
L 684 0 
L 684 794 
z
" transform="scale(0.015625)"/>
       </defs>
       <use xlink:href="#DejaVuSans-30"/>
       <use xlink:href="#DejaVuSans-2e" x="63.623047"/>
       <use xlink:href="#DejaVuSans-30" x="95.410156"/>
      </g>
     </g>
    </g>
    <g id="ytick_2">
     <g id="line2d_8">
      <g>
       <use xlink:href="#mff9b9b68bc" x="63" y="221.829466" style="stroke: #000000; stroke-width: 0.8"/>
      </g>
     </g>
     <g id="text_9">
      <!-- 0.5 -->
      <g transform="translate(40.096875 225.628684) scale(0.1 -0.1)">
       <defs>
        <path id="DejaVuSans-35" d="M 691 4666 
L 3169 4666 
L 3169 4134 
L 1269 4134 
L 1269 2991 
Q 1406 3038 1543 3061 
Q 1681 3084 1819 3084 
Q 2600 3084 3056 2656 
Q 3513 2228 3513 1497 
Q 3513 744 3044 326 
Q 2575 -91 1722 -91 
Q 1428 -91 1123 -41 
Q 819 9 494 109 
L 494 744 
Q 775 591 1075 516 
Q 1375 441 1709 441 
Q 2250 441 2565 725 
Q 2881 1009 2881 1497 
Q 2881 1984 2565 2268 
Q 2250 2553 1709 2553 
Q 1456 2553 1204 2497 
Q 953 2441 691 2322 
L 691 4666 
z
" transform="scale(0.015625)"/>
       </defs>
       <use xlink:href="#DejaVuSans-30"/>
       <use xlink:href="#DejaVuSans-2e" x="63.623047"/>
       <use xlink:href="#DejaVuSans-35" x="95.410156"/>
      </g>
     </g>
    </g>
    <g id="ytick_3">
     <g id="line2d_9">
      <g>
       <use xlink:href="#mff9b9b68bc" x="63" y="197.143089" style="stroke: #000000; stroke-width: 0.8"/>
      </g>
     </g>
     <g id="text_10">
      <!-- 1.0 -->
      <g transform="translate(40.096875 200.942308) scale(0.1 -0.1)">
       <use xlink:href="#DejaVuSans-31"/>
       <use xlink:href="#DejaVuSans-2e" x="63.623047"/>
       <use xlink:href="#DejaVuSans-30" x="95.410156"/>
      </g>
     </g>
    </g>
    <g id="ytick_4">
     <g id="line2d_10">
      <g>
       <use xlink:href="#mff9b9b68bc" x="63" y="172.456712" style="stroke: #000000; stroke-width: 0.8"/>
      </g>
     </g>
     <g id="text_11">
      <!-- 1.5 -->
      <g transform="translate(40.096875 176.255931) scale(0.1 -0.1)">
       <use xlink:href="#DejaVuSans-31"/>
       <use xlink:href="#DejaVuSans-2e" x="63.623047"/>
       <use xlink:href="#DejaVuSans-35" x="95.410156"/>
      </g>
     </g>
    </g>
    <g id="ytick_5">
     <g id="line2d_11">
      <g>
       <use xlink:href="#mff9b9b68bc" x="63" y="147.770335" style="stroke: #000000; stroke-width: 0.8"/>
      </g>
     </g>
     <g id="text_12">
      <!-- 2.0 -->
      <g transform="translate(40.096875 151.569554) scale(0.1 -0.1)">
       <use xlink:href="#DejaVuSans-32"/>
       <use xlink:href="#DejaVuSans-2e" x="63.623047"/>
       <use xlink:href="#DejaVuSans-30" x="95.410156"/>
      </g>
     </g>
    </g>
    <g id="ytick_6">
     <g id="line2d_12">
      <g>
       <use xlink:href="#mff9b9b68bc" x="63" y="123.083959" style="stroke: #000000; stroke-width: 0.8"/>
      </g>
     </g>
     <g id="text_13">
      <!-- 2.5 -->
      <g transform="translate(40.096875 126.883177) scale(0.1 -0.1)">
       <use xlink:href="#DejaVuSans-32"/>
       <use xlink:href="#DejaVuSans-2e" x="63.623047"/>
       <use xlink:href="#DejaVuSans-35" x="95.410156"/>
      </g>
     </g>
    </g>
    <g id="ytick_7">
     <g id="line2d_13">
      <g>
       <use xlink:href="#mff9b9b68bc" x="63" y="98.397582" style="stroke: #000000; stroke-width: 0.8"/>
      </g>
     </g>
     <g id="text_14">
      <!-- 3.0 -->
      <g transform="translate(40.096875 102.196801) scale(0.1 -0.1)">
       <defs>
        <path id="DejaVuSans-33" d="M 2597 2516 
Q 3050 2419 3304 2112 
Q 3559 1806 3559 1356 
Q 3559 666 3084 287 
Q 2609 -91 1734 -91 
Q 1441 -91 1130 -33 
Q 819 25 488 141 
L 488 750 
Q 750 597 1062 519 
Q 1375 441 1716 441 
Q 2309 441 2620 675 
Q 2931 909 2931 1356 
Q 2931 1769 2642 2001 
Q 2353 2234 1838 2234 
L 1294 2234 
L 1294 2753 
L 1863 2753 
Q 2328 2753 2575 2939 
Q 2822 3125 2822 3475 
Q 2822 3834 2567 4026 
Q 2313 4219 1838 4219 
Q 1578 4219 1281 4162 
Q 984 4106 628 3988 
L 628 4550 
Q 988 4650 1302 4700 
Q 1616 4750 1894 4750 
Q 2613 4750 3031 4423 
Q 3450 4097 3450 3541 
Q 3450 3153 3228 2886 
Q 3006 2619 2597 2516 
z
" transform="scale(0.015625)"/>
       </defs>
       <use xlink:href="#DejaVuSans-33"/>
       <use xlink:href="#DejaVuSans-2e" x="63.623047"/>
       <use xlink:href="#DejaVuSans-30" x="95.410156"/>
      </g>
     </g>
    </g>
    <g id="ytick_8">
     <g id="line2d_14">
      <g>
       <use xlink:href="#mff9b9b68bc" x="63" y="73.711205" style="stroke: #000000; stroke-width: 0.8"/>
      </g>
     </g>
     <g id="text_15">
      <!-- 3.5 -->
      <g transform="translate(40.096875 77.510424) scale(0.1 -0.1)">
       <use xlink:href="#DejaVuSans-33"/>
       <use xlink:href="#DejaVuSans-2e" x="63.623047"/>
       <use xlink:href="#DejaVuSans-35" x="95.410156"/>
      </g>
     </g>
    </g>
    <g id="ytick_9">
     <g id="line2d_15">
      <g>
       <use xlink:href="#mff9b9b68bc" x="63" y="49.024829" style="stroke: #000000; stroke-width: 0.8"/>
      </g>
     </g>
     <g id="text_16">
      <!-- 4.0 -->
      <g transform="translate(40.096875 52.824047) scale(0.1 -0.1)">
       <use xlink:href="#DejaVuSans-34"/>
       <use xlink:href="#DejaVuSans-2e" x="63.623047"/>
       <use xlink:href="#DejaVuSans-30" x="95.410156"/>
      </g>
     </g>
    </g>
    <g id="text_17">
     <!-- Time per backward pass $(s)$ -->
     <g transform="translate(33.996875 214.74) rotate(-90) scale(0.1 -0.1)">
      <defs>
       <path id="DejaVuSans-54" d="M -19 4666 
L 3928 4666 
L 3928 4134 
L 2272 4134 
L 2272 0 
L 1638 0 
L 1638 4134 
L -19 4134 
L -19 4666 
z
" transform="scale(0.015625)"/>
       <path id="DejaVuSans-69" d="M 603 3500 
L 1178 3500 
L 1178 0 
L 603 0 
L 603 3500 
z
M 603 4863 
L 1178 4863 
L 1178 4134 
L 603 4134 
L 603 4863 
z
" transform="scale(0.015625)"/>
       <path id="DejaVuSans-61" d="M 2194 1759 
Q 1497 1759 1228 1600 
Q 959 1441 959 1056 
Q 959 750 1161 570 
Q 1363 391 1709 391 
Q 2188 391 2477 730 
Q 2766 1069 2766 1631 
L 2766 1759 
L 2194 1759 
z
M 3341 1997 
L 3341 0 
L 2766 0 
L 2766 531 
Q 2569 213 2275 61 
Q 1981 -91 1556 -91 
Q 1019 -91 701 211 
Q 384 513 384 1019 
Q 384 1609 779 1909 
Q 1175 2209 1959 2209 
L 2766 2209 
L 2766 2266 
Q 2766 2663 2505 2880 
Q 2244 3097 1772 3097 
Q 1472 3097 1187 3025 
Q 903 2953 641 2809 
L 641 3341 
Q 956 3463 1253 3523 
Q 1550 3584 1831 3584 
Q 2591 3584 2966 3190 
Q 3341 2797 3341 1997 
z
" transform="scale(0.015625)"/>
       <path id="DejaVuSans-63" d="M 3122 3366 
L 3122 2828 
Q 2878 2963 2633 3030 
Q 2388 3097 2138 3097 
Q 1578 3097 1268 2742 
Q 959 2388 959 1747 
Q 959 1106 1268 751 
Q 1578 397 2138 397 
Q 2388 397 2633 464 
Q 2878 531 3122 666 
L 3122 134 
Q 2881 22 2623 -34 
Q 2366 -91 2075 -91 
Q 1284 -91 818 406 
Q 353 903 353 1747 
Q 353 2603 823 3093 
Q 1294 3584 2113 3584 
Q 2378 3584 2631 3529 
Q 2884 3475 3122 3366 
z
" transform="scale(0.015625)"/>
       <path id="DejaVuSans-6b" d="M 581 4863 
L 1159 4863 
L 1159 1991 
L 2875 3500 
L 3609 3500 
L 1753 1863 
L 3688 0 
L 2938 0 
L 1159 1709 
L 1159 0 
L 581 0 
L 581 4863 
z
" transform="scale(0.015625)"/>
       <path id="DejaVuSans-77" d="M 269 3500 
L 844 3500 
L 1563 769 
L 2278 3500 
L 2956 3500 
L 3675 769 
L 4391 3500 
L 4966 3500 
L 4050 0 
L 3372 0 
L 2619 2869 
L 1863 0 
L 1184 0 
L 269 3500 
z
" transform="scale(0.015625)"/>
       <path id="DejaVuSans-64" d="M 2906 2969 
L 2906 4863 
L 3481 4863 
L 3481 0 
L 2906 0 
L 2906 525 
Q 2725 213 2448 61 
Q 2172 -91 1784 -91 
Q 1150 -91 751 415 
Q 353 922 353 1747 
Q 353 2572 751 3078 
Q 1150 3584 1784 3584 
Q 2172 3584 2448 3432 
Q 2725 3281 2906 2969 
z
M 947 1747 
Q 947 1113 1208 752 
Q 1469 391 1925 391 
Q 2381 391 2643 752 
Q 2906 1113 2906 1747 
Q 2906 2381 2643 2742 
Q 2381 3103 1925 3103 
Q 1469 3103 1208 2742 
Q 947 2381 947 1747 
z
" transform="scale(0.015625)"/>
       <path id="DejaVuSans-Oblique-73" d="M 3200 3397 
L 3091 2853 
Q 2863 2978 2609 3040 
Q 2356 3103 2088 3103 
Q 1634 3103 1373 2948 
Q 1113 2794 1113 2528 
Q 1113 2219 1719 2053 
Q 1766 2041 1788 2034 
L 1972 1978 
Q 2547 1819 2739 1644 
Q 2931 1469 2931 1166 
Q 2931 609 2489 259 
Q 2047 -91 1331 -91 
Q 1053 -91 747 -37 
Q 441 16 72 128 
L 184 722 
Q 500 559 806 475 
Q 1113 391 1394 391 
Q 1816 391 2080 572 
Q 2344 753 2344 1031 
Q 2344 1331 1650 1516 
L 1591 1531 
L 1394 1581 
Q 956 1697 753 1886 
Q 550 2075 550 2369 
Q 550 2928 970 3256 
Q 1391 3584 2113 3584 
Q 2397 3584 2667 3537 
Q 2938 3491 3200 3397 
z
" transform="scale(0.015625)"/>
      </defs>
      <use xlink:href="#DejaVuSans-54" transform="translate(0 0.015625)"/>
      <use xlink:href="#DejaVuSans-69" transform="translate(61.083984 0.015625)"/>
      <use xlink:href="#DejaVuSans-6d" transform="translate(88.867188 0.015625)"/>
      <use xlink:href="#DejaVuSans-65" transform="translate(186.279297 0.015625)"/>
      <use xlink:href="#DejaVuSans-20" transform="translate(247.802734 0.015625)"/>
      <use xlink:href="#DejaVuSans-70" transform="translate(279.589844 0.015625)"/>
      <use xlink:href="#DejaVuSans-65" transform="translate(343.066406 0.015625)"/>
      <use xlink:href="#DejaVuSans-72" transform="translate(404.589844 0.015625)"/>
      <use xlink:href="#DejaVuSans-20" transform="translate(445.703125 0.015625)"/>
      <use xlink:href="#DejaVuSans-62" transform="translate(477.490234 0.015625)"/>
      <use xlink:href="#DejaVuSans-61" transform="translate(540.966797 0.015625)"/>
      <use xlink:href="#DejaVuSans-63" transform="translate(602.246094 0.015625)"/>
      <use xlink:href="#DejaVuSans-6b" transform="translate(657.226562 0.015625)"/>
      <use xlink:href="#DejaVuSans-77" transform="translate(715.136719 0.015625)"/>
      <use xlink:href="#DejaVuSans-61" transform="translate(796.923828 0.015625)"/>
      <use xlink:href="#DejaVuSans-72" transform="translate(858.203125 0.015625)"/>
      <use xlink:href="#DejaVuSans-64" transform="translate(899.316406 0.015625)"/>
      <use xlink:href="#DejaVuSans-20" transform="translate(962.792969 0.015625)"/>
      <use xlink:href="#DejaVuSans-70" transform="translate(994.580078 0.015625)"/>
      <use xlink:href="#DejaVuSans-61" transform="translate(1058.056641 0.015625)"/>
      <use xlink:href="#DejaVuSans-73" transform="translate(1119.335938 0.015625)"/>
      <use xlink:href="#DejaVuSans-73" transform="translate(1171.435547 0.015625)"/>
      <use xlink:href="#DejaVuSans-20" transform="translate(1223.535156 0.015625)"/>
      <use xlink:href="#DejaVuSans-28" transform="translate(1255.322266 0.015625)"/>
      <use xlink:href="#DejaVuSans-Oblique-73" transform="translate(1294.335938 0.015625)"/>
      <use xlink:href="#DejaVuSans-29" transform="translate(1346.435547 0.015625)"/>
     </g>
    </g>
   </g>
   <g id="LineCollection_1">
    <path d="M 80.754545 244.687769 
L 80.754545 241.750782 
" clip-path="url(#p8e0d3d6c2d)" style="fill: none; stroke: #1f77b4; stroke-width: 1.5"/>
    <path d="M 95.101653 238.9301 
L 95.101653 231.559417 
" clip-path="url(#p8e0d3d6c2d)" style="fill: none; stroke: #1f77b4; stroke-width: 1.5"/>
    <path d="M 113.035537 228.540041 
L 113.035537 224.228134 
" clip-path="url(#p8e0d3d6c2d)" style="fill: none; stroke: #1f77b4; stroke-width: 1.5"/>
    <path d="M 184.771074 195.109927 
L 184.771074 178.004827 
" clip-path="url(#p8e0d3d6c2d)" style="fill: none; stroke: #1f77b4; stroke-width: 1.5"/>
    <path d="M 256.506612 156.785417 
L 256.506612 143.019178 
" clip-path="url(#p8e0d3d6c2d)" style="fill: none; stroke: #1f77b4; stroke-width: 1.5"/>
    <path d="M 364.109917 102.870469 
L 364.109917 87.350719 
" clip-path="url(#p8e0d3d6c2d)" style="fill: none; stroke: #1f77b4; stroke-width: 1.5"/>
    <path d="M 435.845455 67.809116 
L 435.845455 44.64 
" clip-path="url(#p8e0d3d6c2d)" style="fill: none; stroke: #1f77b4; stroke-width: 1.5"/>
   </g>
   <g id="line2d_16">
    <defs>
     <path id="m89e46a219f" d="M 5 0 
L -5 -0 
" style="stroke: #1f77b4"/>
    </defs>
    <g clip-path="url(#p8e0d3d6c2d)">
     <use xlink:href="#m89e46a219f" x="80.754545" y="244.687769" style="fill: #1f77b4; stroke: #1f77b4"/>
     <use xlink:href="#m89e46a219f" x="95.101653" y="238.9301" style="fill: #1f77b4; stroke: #1f77b4"/>
     <use xlink:href="#m89e46a219f" x="113.035537" y="228.540041" style="fill: #1f77b4; stroke: #1f77b4"/>
     <use xlink:href="#m89e46a219f" x="184.771074" y="195.109927" style="fill: #1f77b4; stroke: #1f77b4"/>
     <use xlink:href="#m89e46a219f" x="256.506612" y="156.785417" style="fill: #1f77b4; stroke: #1f77b4"/>
     <use xlink:href="#m89e46a219f" x="364.109917" y="102.870469" style="fill: #1f77b4; stroke: #1f77b4"/>
     <use xlink:href="#m89e46a219f" x="435.845455" y="67.809116" style="fill: #1f77b4; stroke: #1f77b4"/>
    </g>
   </g>
   <g id="line2d_17">
    <g clip-path="url(#p8e0d3d6c2d)">
     <use xlink:href="#m89e46a219f" x="80.754545" y="241.750782" style="fill: #1f77b4; stroke: #1f77b4"/>
     <use xlink:href="#m89e46a219f" x="95.101653" y="231.559417" style="fill: #1f77b4; stroke: #1f77b4"/>
     <use xlink:href="#m89e46a219f" x="113.035537" y="224.228134" style="fill: #1f77b4; stroke: #1f77b4"/>
     <use xlink:href="#m89e46a219f" x="184.771074" y="178.004827" style="fill: #1f77b4; stroke: #1f77b4"/>
     <use xlink:href="#m89e46a219f" x="256.506612" y="143.019178" style="fill: #1f77b4; stroke: #1f77b4"/>
     <use xlink:href="#m89e46a219f" x="364.109917" y="87.350719" style="fill: #1f77b4; stroke: #1f77b4"/>
     <use xlink:href="#m89e46a219f" x="435.845455" y="44.64" style="fill: #1f77b4; stroke: #1f77b4"/>
    </g>
   </g>
   <g id="LineCollection_2">
    <path d="M 80.754545 245.589328 
L 80.754545 245.088 
" clip-path="url(#p8e0d3d6c2d)" style="fill: none; stroke: #ff7f0e; stroke-width: 1.5"/>
    <path d="M 95.101653 243.875302 
L 95.101653 242.745943 
" clip-path="url(#p8e0d3d6c2d)" style="fill: none; stroke: #ff7f0e; stroke-width: 1.5"/>
    <path d="M 113.035537 241.683026 
L 113.035537 240.659145 
" clip-path="url(#p8e0d3d6c2d)" style="fill: none; stroke: #ff7f0e; stroke-width: 1.5"/>
    <path d="M 184.771074 235.191066 
L 184.771074 226.814957 
" clip-path="url(#p8e0d3d6c2d)" style="fill: none; stroke: #ff7f0e; stroke-width: 1.5"/>
    <path d="M 256.506612 224.917178 
L 256.506612 221.520977 
" clip-path="url(#p8e0d3d6c2d)" style="fill: none; stroke: #ff7f0e; stroke-width: 1.5"/>
    <path d="M 364.109917 211.357845 
L 364.109917 210.234357 
" clip-path="url(#p8e0d3d6c2d)" style="fill: none; stroke: #ff7f0e; stroke-width: 1.5"/>
    <path d="M 435.845455 204.424012 
L 435.845455 197.192958 
" clip-path="url(#p8e0d3d6c2d)" style="fill: none; stroke: #ff7f0e; stroke-width: 1.5"/>
   </g>
   <g id="line2d_18">
    <defs>
     <path id="m0e2dd1d4a3" d="M 5 0 
L -5 -0 
" style="stroke: #ff7f0e"/>
    </defs>
    <g clip-path="url(#p8e0d3d6c2d)">
     <use xlink:href="#m0e2dd1d4a3" x="80.754545" y="245.589328" style="fill: #ff7f0e; stroke: #ff7f0e"/>
     <use xlink:href="#m0e2dd1d4a3" x="95.101653" y="243.875302" style="fill: #ff7f0e; stroke: #ff7f0e"/>
     <use xlink:href="#m0e2dd1d4a3" x="113.035537" y="241.683026" style="fill: #ff7f0e; stroke: #ff7f0e"/>
     <use xlink:href="#m0e2dd1d4a3" x="184.771074" y="235.191066" style="fill: #ff7f0e; stroke: #ff7f0e"/>
     <use xlink:href="#m0e2dd1d4a3" x="256.506612" y="224.917178" style="fill: #ff7f0e; stroke: #ff7f0e"/>
     <use xlink:href="#m0e2dd1d4a3" x="364.109917" y="211.357845" style="fill: #ff7f0e; stroke: #ff7f0e"/>
     <use xlink:href="#m0e2dd1d4a3" x="435.845455" y="204.424012" style="fill: #ff7f0e; stroke: #ff7f0e"/>
    </g>
   </g>
   <g id="line2d_19">
    <g clip-path="url(#p8e0d3d6c2d)">
     <use xlink:href="#m0e2dd1d4a3" x="80.754545" y="245.088" style="fill: #ff7f0e; stroke: #ff7f0e"/>
     <use xlink:href="#m0e2dd1d4a3" x="95.101653" y="242.745943" style="fill: #ff7f0e; stroke: #ff7f0e"/>
     <use xlink:href="#m0e2dd1d4a3" x="113.035537" y="240.659145" style="fill: #ff7f0e; stroke: #ff7f0e"/>
     <use xlink:href="#m0e2dd1d4a3" x="184.771074" y="226.814957" style="fill: #ff7f0e; stroke: #ff7f0e"/>
     <use xlink:href="#m0e2dd1d4a3" x="256.506612" y="221.520977" style="fill: #ff7f0e; stroke: #ff7f0e"/>
     <use xlink:href="#m0e2dd1d4a3" x="364.109917" y="210.234357" style="fill: #ff7f0e; stroke: #ff7f0e"/>
     <use xlink:href="#m0e2dd1d4a3" x="435.845455" y="197.192958" style="fill: #ff7f0e; stroke: #ff7f0e"/>
    </g>
   </g>
   <g id="LineCollection_3">
    <path d="M 80.754545 246.24 
L 80.754545 246.03087 
" clip-path="url(#p8e0d3d6c2d)" style="fill: none; stroke: #2ca02c; stroke-width: 1.5"/>
    <path d="M 95.101653 245.714813 
L 95.101653 243.935197 
" clip-path="url(#p8e0d3d6c2d)" style="fill: none; stroke: #2ca02c; stroke-width: 1.5"/>
    <path d="M 113.035537 244.930935 
L 113.035537 243.156388 
" clip-path="url(#p8e0d3d6c2d)" style="fill: none; stroke: #2ca02c; stroke-width: 1.5"/>
    <path d="M 184.771074 242.114198 
L 184.771074 241.061028 
" clip-path="url(#p8e0d3d6c2d)" style="fill: none; stroke: #2ca02c; stroke-width: 1.5"/>
    <path d="M 256.506612 240.87401 
L 256.506612 236.816883 
" clip-path="url(#p8e0d3d6c2d)" style="fill: none; stroke: #2ca02c; stroke-width: 1.5"/>
    <path d="M 364.109917 235.919823 
L 364.109917 234.97891 
" clip-path="url(#p8e0d3d6c2d)" style="fill: none; stroke: #2ca02c; stroke-width: 1.5"/>
    <path d="M 435.845455 233.780997 
L 435.845455 232.219441 
" clip-path="url(#p8e0d3d6c2d)" style="fill: none; stroke: #2ca02c; stroke-width: 1.5"/>
   </g>
   <g id="line2d_20">
    <defs>
     <path id="m5ad25789ed" d="M 5 0 
L -5 -0 
" style="stroke: #2ca02c"/>
    </defs>
    <g clip-path="url(#p8e0d3d6c2d)">
     <use xlink:href="#m5ad25789ed" x="80.754545" y="246.24" style="fill: #2ca02c; stroke: #2ca02c"/>
     <use xlink:href="#m5ad25789ed" x="95.101653" y="245.714813" style="fill: #2ca02c; stroke: #2ca02c"/>
     <use xlink:href="#m5ad25789ed" x="113.035537" y="244.930935" style="fill: #2ca02c; stroke: #2ca02c"/>
     <use xlink:href="#m5ad25789ed" x="184.771074" y="242.114198" style="fill: #2ca02c; stroke: #2ca02c"/>
     <use xlink:href="#m5ad25789ed" x="256.506612" y="240.87401" style="fill: #2ca02c; stroke: #2ca02c"/>
     <use xlink:href="#m5ad25789ed" x="364.109917" y="235.919823" style="fill: #2ca02c; stroke: #2ca02c"/>
     <use xlink:href="#m5ad25789ed" x="435.845455" y="233.780997" style="fill: #2ca02c; stroke: #2ca02c"/>
    </g>
   </g>
   <g id="line2d_21">
    <g clip-path="url(#p8e0d3d6c2d)">
     <use xlink:href="#m5ad25789ed" x="80.754545" y="246.03087" style="fill: #2ca02c; stroke: #2ca02c"/>
     <use xlink:href="#m5ad25789ed" x="95.101653" y="243.935197" style="fill: #2ca02c; stroke: #2ca02c"/>
     <use xlink:href="#m5ad25789ed" x="113.035537" y="243.156388" style="fill: #2ca02c; stroke: #2ca02c"/>
     <use xlink:href="#m5ad25789ed" x="184.771074" y="241.061028" style="fill: #2ca02c; stroke: #2ca02c"/>
     <use xlink:href="#m5ad25789ed" x="256.506612" y="236.816883" style="fill: #2ca02c; stroke: #2ca02c"/>
     <use xlink:href="#m5ad25789ed" x="364.109917" y="234.97891" style="fill: #2ca02c; stroke: #2ca02c"/>
     <use xlink:href="#m5ad25789ed" x="435.845455" y="232.219441" style="fill: #2ca02c; stroke: #2ca02c"/>
    </g>
   </g>
   <g id="line2d_22">
    <path d="M 80.754545 243.219276 
L 95.101653 235.244759 
L 113.035537 226.384087 
L 184.771074 186.557377 
L 256.506612 149.902297 
L 364.109917 95.110594 
L 435.845455 56.224558 
" clip-path="url(#p8e0d3d6c2d)" style="fill: none; stroke-dasharray: 1.5,2.475; stroke-dashoffset: 0; stroke: #1f77b4; stroke-width: 1.5"/>
    <defs>
     <path id="m6ed07d842d" d="M 0 3 
C 0.795609 3 1.55874 2.683901 2.12132 2.12132 
C 2.683901 1.55874 3 0.795609 3 0 
C 3 -0.795609 2.683901 -1.55874 2.12132 -2.12132 
C 1.55874 -2.683901 0.795609 -3 0 -3 
C -0.795609 -3 -1.55874 -2.683901 -2.12132 -2.12132 
C -2.683901 -1.55874 -3 -0.795609 -3 0 
C -3 0.795609 -2.683901 1.55874 -2.12132 2.12132 
C -1.55874 2.683901 -0.795609 3 0 3 
z
" style="stroke: #1f77b4"/>
    </defs>
    <g clip-path="url(#p8e0d3d6c2d)">
     <use xlink:href="#m6ed07d842d" x="80.754545" y="243.219276" style="fill: #1f77b4; stroke: #1f77b4"/>
     <use xlink:href="#m6ed07d842d" x="95.101653" y="235.244759" style="fill: #1f77b4; stroke: #1f77b4"/>
     <use xlink:href="#m6ed07d842d" x="113.035537" y="226.384087" style="fill: #1f77b4; stroke: #1f77b4"/>
     <use xlink:href="#m6ed07d842d" x="184.771074" y="186.557377" style="fill: #1f77b4; stroke: #1f77b4"/>
     <use xlink:href="#m6ed07d842d" x="256.506612" y="149.902297" style="fill: #1f77b4; stroke: #1f77b4"/>
     <use xlink:href="#m6ed07d842d" x="364.109917" y="95.110594" style="fill: #1f77b4; stroke: #1f77b4"/>
     <use xlink:href="#m6ed07d842d" x="435.845455" y="56.224558" style="fill: #1f77b4; stroke: #1f77b4"/>
    </g>
   </g>
   <g id="line2d_23">
    <path d="M 80.754545 245.338664 
L 95.101653 243.310622 
L 113.035537 241.171085 
L 184.771074 231.003011 
L 256.506612 223.219078 
L 364.109917 210.796101 
L 435.845455 200.808485 
" clip-path="url(#p8e0d3d6c2d)" style="fill: none; stroke-dasharray: 1.5,2.475; stroke-dashoffset: 0; stroke: #ff7f0e; stroke-width: 1.5"/>
    <defs>
     <path id="ma25cbb0970" d="M -3 3 
L 3 3 
L 3 -3 
L -3 -3 
z
" style="stroke: #ff7f0e; stroke-linejoin: miter"/>
    </defs>
    <g clip-path="url(#p8e0d3d6c2d)">
     <use xlink:href="#ma25cbb0970" x="80.754545" y="245.338664" style="fill: #ff7f0e; stroke: #ff7f0e; stroke-linejoin: miter"/>
     <use xlink:href="#ma25cbb0970" x="95.101653" y="243.310622" style="fill: #ff7f0e; stroke: #ff7f0e; stroke-linejoin: miter"/>
     <use xlink:href="#ma25cbb0970" x="113.035537" y="241.171085" style="fill: #ff7f0e; stroke: #ff7f0e; stroke-linejoin: miter"/>
     <use xlink:href="#ma25cbb0970" x="184.771074" y="231.003011" style="fill: #ff7f0e; stroke: #ff7f0e; stroke-linejoin: miter"/>
     <use xlink:href="#ma25cbb0970" x="256.506612" y="223.219078" style="fill: #ff7f0e; stroke: #ff7f0e; stroke-linejoin: miter"/>
     <use xlink:href="#ma25cbb0970" x="364.109917" y="210.796101" style="fill: #ff7f0e; stroke: #ff7f0e; stroke-linejoin: miter"/>
     <use xlink:href="#ma25cbb0970" x="435.845455" y="200.808485" style="fill: #ff7f0e; stroke: #ff7f0e; stroke-linejoin: miter"/>
    </g>
   </g>
   <g id="line2d_24">
    <path d="M 80.754545 246.135435 
L 95.101653 244.825005 
L 113.035537 244.043661 
L 184.771074 241.587613 
L 256.506612 238.845446 
L 364.109917 235.449367 
L 435.845455 233.000219 
" clip-path="url(#p8e0d3d6c2d)" style="fill: none; stroke-dasharray: 1.5,2.475; stroke-dashoffset: 0; stroke: #2ca02c; stroke-width: 1.5"/>
    <defs>
     <path id="me44852efa5" d="M 0 -3 
L -3 3 
L 3 3 
z
" style="stroke: #2ca02c; stroke-linejoin: miter"/>
    </defs>
    <g clip-path="url(#p8e0d3d6c2d)">
     <use xlink:href="#me44852efa5" x="80.754545" y="246.135435" style="fill: #2ca02c; stroke: #2ca02c; stroke-linejoin: miter"/>
     <use xlink:href="#me44852efa5" x="95.101653" y="244.825005" style="fill: #2ca02c; stroke: #2ca02c; stroke-linejoin: miter"/>
     <use xlink:href="#me44852efa5" x="113.035537" y="244.043661" style="fill: #2ca02c; stroke: #2ca02c; stroke-linejoin: miter"/>
     <use xlink:href="#me44852efa5" x="184.771074" y="241.587613" style="fill: #2ca02c; stroke: #2ca02c; stroke-linejoin: miter"/>
     <use xlink:href="#me44852efa5" x="256.506612" y="238.845446" style="fill: #2ca02c; stroke: #2ca02c; stroke-linejoin: miter"/>
     <use xlink:href="#me44852efa5" x="364.109917" y="235.449367" style="fill: #2ca02c; stroke: #2ca02c; stroke-linejoin: miter"/>
     <use xlink:href="#me44852efa5" x="435.845455" y="233.000219" style="fill: #2ca02c; stroke: #2ca02c; stroke-linejoin: miter"/>
    </g>
   </g>
   <g id="patch_3">
    <path d="M 63 256.32 
L 63 34.56 
" style="fill: none; stroke: #000000; stroke-width: 0.8; stroke-linejoin: miter; stroke-linecap: square"/>
   </g>
   <g id="patch_4">
    <path d="M 453.6 256.32 
L 453.6 34.56 
" style="fill: none; stroke: #000000; stroke-width: 0.8; stroke-linejoin: miter; stroke-linecap: square"/>
   </g>
   <g id="patch_5">
    <path d="M 63 256.32 
L 453.6 256.32 
" style="fill: none; stroke: #000000; stroke-width: 0.8; stroke-linejoin: miter; stroke-linecap: square"/>
   </g>
   <g id="patch_6">
    <path d="M 63 34.56 
L 453.6 34.56 
" style="fill: none; stroke: #000000; stroke-width: 0.8; stroke-linejoin: miter; stroke-linecap: square"/>
   </g>
   <g id="legend_1">
    <g id="patch_7">
     <path d="M 70 86.594375 
L 228.739062 86.594375 
Q 230.739062 86.594375 230.739062 84.594375 
L 230.739062 41.56 
Q 230.739062 39.56 228.739062 39.56 
L 70 39.56 
Q 68 39.56 68 41.56 
L 68 84.594375 
Q 68 86.594375 70 86.594375 
z
" style="fill: #ffffff; opacity: 0.8; stroke: #cccccc; stroke-linejoin: miter"/>
    </g>
    <g id="LineCollection_4">
     <path d="M 82 52.658438 
L 82 42.658438 
" style="fill: none; stroke: #1f77b4; stroke-width: 1.5"/>
    </g>
    <g id="line2d_25">
     <g>
      <use xlink:href="#m89e46a219f" x="82" y="52.658438" style="fill: #1f77b4; stroke: #1f77b4"/>
     </g>
    </g>
    <g id="line2d_26">
     <g>
      <use xlink:href="#m89e46a219f" x="82" y="42.658438" style="fill: #1f77b4; stroke: #1f77b4"/>
     </g>
    </g>
    <g id="line2d_27">
     <path d="M 72 47.658438 
L 92 47.658438 
" style="fill: none; stroke-dasharray: 1.5,2.475; stroke-dashoffset: 0; stroke: #1f77b4; stroke-width: 1.5"/>
    </g>
    <g id="line2d_28">
     <g>
      <use xlink:href="#m6ed07d842d" x="82" y="47.658438" style="fill: #1f77b4; stroke: #1f77b4"/>
     </g>
    </g>
    <g id="text_18">
     <!-- Full computational graph -->
     <g transform="translate(100 51.158438) scale(0.1 -0.1)">
      <defs>
       <path id="DejaVuSans-46" d="M 628 4666 
L 3309 4666 
L 3309 4134 
L 1259 4134 
L 1259 2759 
L 3109 2759 
L 3109 2228 
L 1259 2228 
L 1259 0 
L 628 0 
L 628 4666 
z
" transform="scale(0.015625)"/>
       <path id="DejaVuSans-6e" d="M 3513 2113 
L 3513 0 
L 2938 0 
L 2938 2094 
Q 2938 2591 2744 2837 
Q 2550 3084 2163 3084 
Q 1697 3084 1428 2787 
Q 1159 2491 1159 1978 
L 1159 0 
L 581 0 
L 581 3500 
L 1159 3500 
L 1159 2956 
Q 1366 3272 1645 3428 
Q 1925 3584 2291 3584 
Q 2894 3584 3203 3211 
Q 3513 2838 3513 2113 
z
" transform="scale(0.015625)"/>
       <path id="DejaVuSans-67" d="M 2906 1791 
Q 2906 2416 2648 2759 
Q 2391 3103 1925 3103 
Q 1463 3103 1205 2759 
Q 947 2416 947 1791 
Q 947 1169 1205 825 
Q 1463 481 1925 481 
Q 2391 481 2648 825 
Q 2906 1169 2906 1791 
z
M 3481 434 
Q 3481 -459 3084 -895 
Q 2688 -1331 1869 -1331 
Q 1566 -1331 1297 -1286 
Q 1028 -1241 775 -1147 
L 775 -588 
Q 1028 -725 1275 -790 
Q 1522 -856 1778 -856 
Q 2344 -856 2625 -561 
Q 2906 -266 2906 331 
L 2906 616 
Q 2728 306 2450 153 
Q 2172 0 1784 0 
Q 1141 0 747 490 
Q 353 981 353 1791 
Q 353 2603 747 3093 
Q 1141 3584 1784 3584 
Q 2172 3584 2450 3431 
Q 2728 3278 2906 2969 
L 2906 3500 
L 3481 3500 
L 3481 434 
z
" transform="scale(0.015625)"/>
       <path id="DejaVuSans-68" d="M 3513 2113 
L 3513 0 
L 2938 0 
L 2938 2094 
Q 2938 2591 2744 2837 
Q 2550 3084 2163 3084 
Q 1697 3084 1428 2787 
Q 1159 2491 1159 1978 
L 1159 0 
L 581 0 
L 581 4863 
L 1159 4863 
L 1159 2956 
Q 1366 3272 1645 3428 
Q 1925 3584 2291 3584 
Q 2894 3584 3203 3211 
Q 3513 2838 3513 2113 
z
" transform="scale(0.015625)"/>
      </defs>
      <use xlink:href="#DejaVuSans-46"/>
      <use xlink:href="#DejaVuSans-75" x="52.019531"/>
      <use xlink:href="#DejaVuSans-6c" x="115.398438"/>
      <use xlink:href="#DejaVuSans-6c" x="143.181641"/>
      <use xlink:href="#DejaVuSans-20" x="170.964844"/>
      <use xlink:href="#DejaVuSans-63" x="202.751953"/>
      <use xlink:href="#DejaVuSans-6f" x="257.732422"/>
      <use xlink:href="#DejaVuSans-6d" x="318.914062"/>
      <use xlink:href="#DejaVuSans-70" x="416.326172"/>
      <use xlink:href="#DejaVuSans-75" x="479.802734"/>
      <use xlink:href="#DejaVuSans-74" x="543.181641"/>
      <use xlink:href="#DejaVuSans-61" x="582.390625"/>
      <use xlink:href="#DejaVuSans-74" x="643.669922"/>
      <use xlink:href="#DejaVuSans-69" x="682.878906"/>
      <use xlink:href="#DejaVuSans-6f" x="710.662109"/>
      <use xlink:href="#DejaVuSans-6e" x="771.84375"/>
      <use xlink:href="#DejaVuSans-61" x="835.222656"/>
      <use xlink:href="#DejaVuSans-6c" x="896.501953"/>
      <use xlink:href="#DejaVuSans-20" x="924.285156"/>
      <use xlink:href="#DejaVuSans-67" x="956.072266"/>
      <use xlink:href="#DejaVuSans-72" x="1019.548828"/>
      <use xlink:href="#DejaVuSans-61" x="1060.662109"/>
      <use xlink:href="#DejaVuSans-70" x="1121.941406"/>
      <use xlink:href="#DejaVuSans-68" x="1185.417969"/>
     </g>
    </g>
    <g id="LineCollection_5">
     <path d="M 82 67.336563 
L 82 57.336563 
" style="fill: none; stroke: #ff7f0e; stroke-width: 1.5"/>
    </g>
    <g id="line2d_29">
     <g>
      <use xlink:href="#m0e2dd1d4a3" x="82" y="67.336563" style="fill: #ff7f0e; stroke: #ff7f0e"/>
     </g>
    </g>
    <g id="line2d_30">
     <g>
      <use xlink:href="#m0e2dd1d4a3" x="82" y="57.336563" style="fill: #ff7f0e; stroke: #ff7f0e"/>
     </g>
    </g>
    <g id="line2d_31">
     <path d="M 72 62.336563 
L 92 62.336563 
" style="fill: none; stroke-dasharray: 1.5,2.475; stroke-dashoffset: 0; stroke: #ff7f0e; stroke-width: 1.5"/>
    </g>
    <g id="line2d_32">
     <g>
      <use xlink:href="#ma25cbb0970" x="82" y="62.336563" style="fill: #ff7f0e; stroke: #ff7f0e; stroke-linejoin: miter"/>
     </g>
    </g>
    <g id="text_19">
     <!-- EGA (first order Jacobian) -->
     <g transform="translate(100 65.836563) scale(0.1 -0.1)">
      <defs>
       <path id="DejaVuSans-45" d="M 628 4666 
L 3578 4666 
L 3578 4134 
L 1259 4134 
L 1259 2753 
L 3481 2753 
L 3481 2222 
L 1259 2222 
L 1259 531 
L 3634 531 
L 3634 0 
L 628 0 
L 628 4666 
z
" transform="scale(0.015625)"/>
       <path id="DejaVuSans-47" d="M 3809 666 
L 3809 1919 
L 2778 1919 
L 2778 2438 
L 4434 2438 
L 4434 434 
Q 4069 175 3628 42 
Q 3188 -91 2688 -91 
Q 1594 -91 976 548 
Q 359 1188 359 2328 
Q 359 3472 976 4111 
Q 1594 4750 2688 4750 
Q 3144 4750 3555 4637 
Q 3966 4525 4313 4306 
L 4313 3634 
Q 3963 3931 3569 4081 
Q 3175 4231 2741 4231 
Q 1884 4231 1454 3753 
Q 1025 3275 1025 2328 
Q 1025 1384 1454 906 
Q 1884 428 2741 428 
Q 3075 428 3337 486 
Q 3600 544 3809 666 
z
" transform="scale(0.015625)"/>
       <path id="DejaVuSans-41" d="M 2188 4044 
L 1331 1722 
L 3047 1722 
L 2188 4044 
z
M 1831 4666 
L 2547 4666 
L 4325 0 
L 3669 0 
L 3244 1197 
L 1141 1197 
L 716 0 
L 50 0 
L 1831 4666 
z
" transform="scale(0.015625)"/>
       <path id="DejaVuSans-4a" d="M 628 4666 
L 1259 4666 
L 1259 325 
Q 1259 -519 939 -900 
Q 619 -1281 -91 -1281 
L -331 -1281 
L -331 -750 
L -134 -750 
Q 284 -750 456 -515 
Q 628 -281 628 325 
L 628 4666 
z
" transform="scale(0.015625)"/>
      </defs>
      <use xlink:href="#DejaVuSans-45"/>
      <use xlink:href="#DejaVuSans-47" x="63.183594"/>
      <use xlink:href="#DejaVuSans-41" x="140.673828"/>
      <use xlink:href="#DejaVuSans-20" x="209.082031"/>
      <use xlink:href="#DejaVuSans-28" x="240.869141"/>
      <use xlink:href="#DejaVuSans-66" x="279.882812"/>
      <use xlink:href="#DejaVuSans-69" x="315.087891"/>
      <use xlink:href="#DejaVuSans-72" x="342.871094"/>
      <use xlink:href="#DejaVuSans-73" x="383.984375"/>
      <use xlink:href="#DejaVuSans-74" x="436.083984"/>
      <use xlink:href="#DejaVuSans-20" x="475.292969"/>
      <use xlink:href="#DejaVuSans-6f" x="507.080078"/>
      <use xlink:href="#DejaVuSans-72" x="568.261719"/>
      <use xlink:href="#DejaVuSans-64" x="607.625"/>
      <use xlink:href="#DejaVuSans-65" x="671.101562"/>
      <use xlink:href="#DejaVuSans-72" x="732.625"/>
      <use xlink:href="#DejaVuSans-20" x="773.738281"/>
      <use xlink:href="#DejaVuSans-4a" x="805.525391"/>
      <use xlink:href="#DejaVuSans-61" x="835.017578"/>
      <use xlink:href="#DejaVuSans-63" x="896.296875"/>
      <use xlink:href="#DejaVuSans-6f" x="951.277344"/>
      <use xlink:href="#DejaVuSans-62" x="1012.458984"/>
      <use xlink:href="#DejaVuSans-69" x="1075.935547"/>
      <use xlink:href="#DejaVuSans-61" x="1103.71875"/>
      <use xlink:href="#DejaVuSans-6e" x="1164.998047"/>
      <use xlink:href="#DejaVuSans-29" x="1228.376953"/>
     </g>
    </g>
    <g id="LineCollection_6">
     <path d="M 82 82.014688 
L 82 72.014688 
" style="fill: none; stroke: #2ca02c; stroke-width: 1.5"/>
    </g>
    <g id="line2d_33">
     <g>
      <use xlink:href="#m5ad25789ed" x="82" y="82.014688" style="fill: #2ca02c; stroke: #2ca02c"/>
     </g>
    </g>
    <g id="line2d_34">
     <g>
      <use xlink:href="#m5ad25789ed" x="82" y="72.014688" style="fill: #2ca02c; stroke: #2ca02c"/>
     </g>
    </g>
    <g id="line2d_35">
     <path d="M 72 77.014688 
L 92 77.014688 
" style="fill: none; stroke-dasharray: 1.5,2.475; stroke-dashoffset: 0; stroke: #2ca02c; stroke-width: 1.5"/>
    </g>
    <g id="line2d_36">
     <g>
      <use xlink:href="#me44852efa5" x="82" y="77.014688" style="fill: #2ca02c; stroke: #2ca02c; stroke-linejoin: miter"/>
     </g>
    </g>
    <g id="text_20">
     <!-- Static EGA -->
     <g transform="translate(100 80.514688) scale(0.1 -0.1)">
      <defs>
       <path id="DejaVuSans-53" d="M 3425 4513 
L 3425 3897 
Q 3066 4069 2747 4153 
Q 2428 4238 2131 4238 
Q 1616 4238 1336 4038 
Q 1056 3838 1056 3469 
Q 1056 3159 1242 3001 
Q 1428 2844 1947 2747 
L 2328 2669 
Q 3034 2534 3370 2195 
Q 3706 1856 3706 1288 
Q 3706 609 3251 259 
Q 2797 -91 1919 -91 
Q 1588 -91 1214 -16 
Q 841 59 441 206 
L 441 856 
Q 825 641 1194 531 
Q 1563 422 1919 422 
Q 2459 422 2753 634 
Q 3047 847 3047 1241 
Q 3047 1584 2836 1778 
Q 2625 1972 2144 2069 
L 1759 2144 
Q 1053 2284 737 2584 
Q 422 2884 422 3419 
Q 422 4038 858 4394 
Q 1294 4750 2059 4750 
Q 2388 4750 2728 4690 
Q 3069 4631 3425 4513 
z
" transform="scale(0.015625)"/>
      </defs>
      <use xlink:href="#DejaVuSans-53"/>
      <use xlink:href="#DejaVuSans-74" x="63.476562"/>
      <use xlink:href="#DejaVuSans-61" x="102.685547"/>
      <use xlink:href="#DejaVuSans-74" x="163.964844"/>
      <use xlink:href="#DejaVuSans-69" x="203.173828"/>
      <use xlink:href="#DejaVuSans-63" x="230.957031"/>
      <use xlink:href="#DejaVuSans-20" x="285.9375"/>
      <use xlink:href="#DejaVuSans-45" x="317.724609"/>
      <use xlink:href="#DejaVuSans-47" x="380.908203"/>
      <use xlink:href="#DejaVuSans-41" x="458.398438"/>
     </g>
    </g>
   </g>
  </g>
 </g>
 <defs>
  <clipPath id="p8e0d3d6c2d">
   <rect x="63" y="34.56" width="390.6" height="221.76"/>
  </clipPath>
 </defs>
</svg>
